<?xml version="1.0" encoding="iso-8859-1"?>
<!-- Generator: Adobe Illustrator 30.2.1, SVG Export Plug-In . SVG Version: 9.03 Build 0)  -->
<svg version="1.1" id="&#x30EC;&#x30A4;&#x30E4;&#x30FC;_1"
	 xmlns="http://www.w3.org/2000/svg" xmlns:xlink="http://www.w3.org/1999/xlink" x="0px" y="0px" viewBox="0 0 392.935 87.368"
	 enable-background="new 0 0 392.935 87.368" xml:space="preserve">
<g>
	<path fill="#231815" d="M111.236,28.535c-0.606,0-1.099-0.491-1.099-1.093c0-0.613,0.493-1.104,1.099-1.104h38.953
		c0.606,0,1.097,0.491,1.097,1.104c0,0.602-0.491,1.093-1.097,1.093H111.236z"/>
	<path fill="#231815" d="M111.236,14.857c-0.606,0-1.099-0.493-1.099-1.097c0-0.607,0.493-1.099,1.099-1.099h38.953
		c0.606,0,1.097,0.491,1.097,1.099c0,0.604-0.491,1.097-1.097,1.097H111.236z"/>
	<path fill="#231815" d="M149.967,60.46l-38.947-7.97c-0.595-0.118-0.981-0.699-0.861-1.295c0.123-0.595,0.706-0.977,1.304-0.856
		l38.947,7.964c0.595,0.125,0.983,0.706,0.858,1.301c-0.107,0.52-0.561,0.881-1.074,0.881
		C150.12,60.485,150.043,60.478,149.967,60.46"/>
	<path fill="#231815" d="M242.383,28.535c-0.609,0-1.1-0.491-1.1-1.093c0-0.607,0.491-1.104,1.1-1.104h26.906
		c0.607,0,1.104,0.497,1.104,1.104c0,0.602-0.497,1.093-1.104,1.093H242.383z"/>
	<path fill="#231815" d="M242.383,14.857c-0.609,0-1.1-0.493-1.1-1.097c0-0.609,0.491-1.099,1.1-1.099h26.906
		c0.607,0,1.104,0.49,1.104,1.099c0,0.604-0.497,1.097-1.104,1.097H242.383z"/>
	<path fill="#231815" d="M278.662,27.441V6.291c0-0.615,0.488-1.099,1.099-1.099c0.606,0,1.099,0.484,1.099,1.099v21.15
		c0,0.602-0.493,1.093-1.099,1.093C279.15,28.535,278.662,28.043,278.662,27.441"/>
	<path fill="#231815" d="M284.477,27.438V6.293c0-0.606,0.495-1.1,1.109-1.1c0.602,0,1.09,0.495,1.09,1.1v21.145
		c0,0.609-0.488,1.097-1.09,1.097C284.972,28.535,284.477,28.047,284.477,27.438"/>
	<path fill="#231815" d="M241.307,59.607c-0.12-0.597,0.261-1.177,0.856-1.299l38.949-7.966c0.593-0.125,1.179,0.257,1.306,0.854
		c0.118,0.597-0.27,1.175-0.859,1.295l-38.951,7.969c-0.079,0.016-0.15,0.023-0.23,0.023
		C241.873,60.484,241.412,60.121,241.307,59.607"/>
	<path fill="#231815" d="M25.235,13.258V1.102c0-0.611,0.491-1.102,1.1-1.102c0.611,0,1.1,0.491,1.1,1.102v12.155
		c0,0.604-0.489,1.093-1.1,1.093C25.727,14.351,25.235,13.861,25.235,13.258"/>
	<path fill="#231815" d="M11.284,26.56V14.407c0-0.611,0.486-1.104,1.1-1.104c0.609,0,1.099,0.493,1.099,1.104V26.56
		c0,0.604-0.489,1.099-1.099,1.099C11.77,27.659,11.284,27.164,11.284,26.56"/>
	<path fill="#231815" d="M39.041,26.56V14.405c0-0.607,0.491-1.099,1.106-1.099c0.604,0,1.099,0.491,1.099,1.099V26.56
		c0,0.604-0.495,1.097-1.099,1.097C39.532,27.657,39.041,27.164,39.041,26.56"/>
	<path fill="#231815" d="M4.065,15.103c-0.606,0-1.093-0.493-1.093-1.099c0-0.609,0.488-1.097,1.093-1.097h44.542
		c0.604,0,1.1,0.488,1.1,1.097c0,0.606-0.497,1.099-1.1,1.099H4.065z"/>
	<path fill="#231815" d="M1.097,28.783C0.49,28.783,0,28.288,0,27.682c0-0.609,0.49-1.1,1.097-1.1h50.481
		c0.604,0,1.099,0.491,1.099,1.1c0,0.606-0.495,1.1-1.099,1.1H1.097z"/>
	<path fill="#231815" d="M12.646,48.848c-0.607,0-1.097-0.491-1.097-1.095c0-0.611,0.49-1.102,1.097-1.102h27.376
		c0.604,0,1.099,0.491,1.099,1.102c0,0.604-0.495,1.095-1.099,1.095H12.646z"/>
	<path fill="#231815" d="M12.548,62.641c-0.295,0-0.573-0.12-0.779-0.323c-0.2-0.204-0.323-0.491-0.323-0.775V33.961
		c0-0.293,0.116-0.573,0.323-0.782c0.205-0.204,0.484-0.32,0.779-0.32h27.58c0.286,0,0.572,0.116,0.779,0.32
		c0.204,0.209,0.32,0.489,0.32,0.782v27.582c0,0.288-0.113,0.572-0.32,0.775c-0.207,0.209-0.486,0.323-0.779,0.323H12.548z
		 M40.128,61.543v-1.102V61.543z M13.645,60.441h25.381V35.055H13.645V60.441z"/>
	<path fill="#231815" d="M85.804,61.299c0-0.604,0.489-1.097,1.099-1.097h5.275V34.814H66.796v25.382h6.276V38.273
		c0-0.609,0.49-1.099,1.102-1.099c0.604,0,1.095,0.49,1.095,1.099v23.026c0,0.291-0.113,0.572-0.32,0.777
		c-0.205,0.209-0.482,0.32-0.775,0.32h-8.477c-0.289,0-0.572-0.118-0.777-0.32c-0.209-0.204-0.322-0.488-0.322-0.777v-27.58
		c0-0.289,0.113-0.573,0.322-0.779c0.204-0.202,0.488-0.322,0.777-0.322h27.585c0.289,0,0.57,0.12,0.772,0.322
		c0.204,0.205,0.327,0.489,0.327,0.779v27.58c0,0.291-0.116,0.572-0.327,0.777c-0.204,0.209-0.482,0.32-0.772,0.32l-6.38,0.005
		C86.294,62.401,85.804,61.906,85.804,61.299"/>
	<path fill="#231815" d="M202.123,34.814c-0.611,0-1.1-0.484-1.1-1.095c0-0.609,0.489-1.1,1.1-1.1h28.276
		c0.609,0,1.104,0.491,1.104,1.1c0,0.611-0.495,1.095-1.104,1.095H202.123z"/>
	<path fill="#231815" d="M162.022,62.402c-0.607,0-1.099-0.493-1.099-1.102c0-0.604,0.491-1.097,1.099-1.097h28.273
		c0.604,0,1.097,0.493,1.097,1.097c0,0.609-0.493,1.102-1.097,1.102H162.022z"/>
	<path fill="#231815" d="M180.719,61.002l-0.007-26.181h-12.514c-0.607,0-1.099-0.495-1.099-1.104c0-0.604,0.491-1.099,1.099-1.099
		h13.62c0.286,0,0.573,0.12,0.777,0.322c0.204,0.209,0.318,0.488,0.318,0.777l0.004,27.285c0,0.607-0.493,1.093-1.099,1.093
		C181.208,62.096,180.719,61.61,180.719,61.002"/>
	<path fill="#231815" d="M339.521,28.424c-0.607-0.004-1.099-0.502-1.086-1.108l0.109-12.459h-37.841v0.004
		c-0.609,0-1.104-0.497-1.104-1.1c0-0.607,0.495-1.099,1.104-1.099h38.947c0.295,0,0.579,0.114,0.784,0.325
		c0.204,0.209,0.32,0.49,0.316,0.784l-0.116,13.574c-0.007,0.595-0.495,1.079-1.099,1.079H339.521z"/>
	<path fill="#231815" d="M310.727,62.641c-0.604,0-1.095-0.491-1.095-1.097c0-0.611,0.491-1.102,1.095-1.102h6.932V18.25
		c0-0.607,0.495-1.097,1.1-1.097c0.607,0,1.102,0.49,1.102,1.097v43.294c0,0.288-0.118,0.566-0.327,0.774
		c-0.211,0.211-0.482,0.323-0.775,0.323H310.727z"/>
	<path fill="#231815" d="M350.633,62.738c-0.234-0.286-0.32-0.679-0.2-1.029l15.035-48.271c0.177-0.582,0.795-0.908,1.377-0.727
		c0.573,0.179,0.893,0.799,0.718,1.374l-14.528,46.658l37.098-4.413c0.604-0.07,1.149,0.356,1.217,0.959
		c0.079,0.607-0.355,1.149-0.958,1.224l-38.783,4.614c-0.041,0.005-0.084,0.009-0.121,0.009
		C351.162,63.137,350.849,62.99,350.633,62.738"/>
	<path fill="#231815" d="M390.787,61.704l-5.763-17.802c-0.189-0.575,0.132-1.199,0.711-1.386c0.577-0.188,1.193,0.132,1.379,0.706
		l5.765,17.809c0.193,0.575-0.129,1.199-0.707,1.385c-0.113,0.038-0.223,0.052-0.336,0.052
		C391.369,62.467,390.939,62.174,390.787,61.704"/>
	<path fill="#231815" d="M7.142,82.587c-0.048-0.908-0.534-1.272-1.413-1.272c-0.163,0-1.377,0-1.377,0.999
		c0,0.666,0.45,0.833,1.733,1.304c1.315,0.49,2.058,0.757,2.058,1.847c0,0.815-0.59,1.903-2.297,1.903
		c-1.165,0-2.469-0.534-2.51-2.108h0.861c0.005,0.918,0.638,1.401,1.592,1.401c0.909,0,1.535-0.513,1.535-1.122
		c0-0.665-0.543-0.87-1.574-1.229c-1.418-0.493-2.217-0.777-2.217-1.901c0-1.093,0.918-1.801,2.192-1.801
		c1.068,0,2.103,0.413,2.256,1.979H7.142z"/>
	<path fill="#231815" d="M43.319,83.982c0,1.947-1.154,3.385-2.919,3.385c-1.749,0-2.914-1.418-2.914-3.385
		c0-1.833,1.056-3.376,2.914-3.376C42.283,80.606,43.319,82.182,43.319,83.982 M38.308,83.982c0,1.854,1.015,2.678,2.092,2.678
		c0.995,0,2.099-0.72,2.099-2.678c0-1.858-1.024-2.667-2.099-2.667C39.376,81.315,38.308,82.078,38.308,83.982"/>
	<path fill="#231815" d="M73.753,80.785v4.107c0,1.769,1.635,1.769,1.856,1.769c0.295,0,1.835-0.064,1.835-1.769v-4.107h0.815v4.021
		c0,1.22-0.598,2.562-2.667,2.562c-1.828,0-2.64-1.099-2.64-2.562v-4.021H73.753z"/>
	<polygon fill="#231815" points="108.954,80.785 112.649,85.985 112.649,80.785 113.46,80.785 113.46,87.189 112.649,87.189 
		108.954,81.987 108.954,87.189 108.152,87.189 108.152,80.785 	"/>
	<path fill="#231815" d="M145.593,80.784c1.61,0,2.849,1.072,2.849,3.155c0,2.649-1.699,3.25-2.849,3.25h-2.215v-6.405H145.593z
		 M144.188,81.479v5.009h1.395c1.338,0,2.037-1.113,2.037-2.523c0-1.197-0.581-2.487-2.037-2.487H144.188z"/>
	<polygon fill="#231815" points="210.43,80.785 212.21,86.228 213.993,80.785 215.122,80.785 215.122,87.189 214.314,87.189 
		214.314,81.728 212.533,87.189 211.886,87.189 210.109,81.728 210.109,87.189 209.296,87.189 209.296,80.785 	"/>
	<path fill="#231815" d="M245.787,80.785v4.107c0,1.769,1.629,1.769,1.854,1.769c0.295,0,1.838-0.064,1.838-1.769v-4.107h0.811
		v4.021c0,1.22-0.597,2.562-2.664,2.562c-1.833,0-2.646-1.099-2.646-2.562v-4.021H245.787z"/>
	<path fill="#231815" d="M283.711,82.587c-0.052-0.908-0.534-1.272-1.411-1.272c-0.163,0-1.381,0-1.381,0.999
		c0,0.666,0.452,0.833,1.733,1.304c1.317,0.49,2.063,0.757,2.063,1.847c0,0.815-0.595,1.903-2.299,1.903
		c-1.167,0-2.467-0.534-2.514-2.108h0.861c0.011,0.918,0.643,1.401,1.592,1.401c0.915,0,1.535-0.513,1.535-1.122
		c0-0.665-0.541-0.87-1.576-1.229c-1.413-0.493-2.21-0.777-2.21-1.901c0-1.093,0.916-1.801,2.187-1.801
		c1.074,0,2.106,0.413,2.26,1.979H283.711z"/>
	<polygon fill="#231815" points="318.814,80.785 318.814,81.48 315.111,81.48 315.111,83.547 318.363,83.547 318.363,84.247 
		315.111,84.247 315.111,86.487 318.895,86.487 318.895,87.189 314.3,87.189 314.3,80.785 	"/>
	<path fill="#231815" d="M349.258,80.785v4.107c0,1.769,1.633,1.769,1.853,1.769c0.295,0,1.837-0.064,1.837-1.769v-4.107h0.815
		v4.021c0,1.22-0.597,2.562-2.669,2.562c-1.826,0-2.637-1.099-2.637-2.562v-4.021H349.258z"/>
	<polygon fill="#231815" points="384.756,80.785 386.537,86.228 388.32,80.785 389.451,80.785 389.451,87.189 388.641,87.189 
		388.641,81.728 386.855,87.189 386.213,87.189 384.436,81.728 384.436,87.189 383.623,87.189 383.623,80.785 	"/>
</g>
</svg>
