<?xml version="1.0" encoding="iso-8859-1"?>
<!-- Generator: Adobe Illustrator 30.2.1, SVG Export Plug-In . SVG Version: 9.03 Build 0)  -->
<svg version="1.1" id="&#x30EC;&#x30A4;&#x30E4;&#x30FC;_6"
	 xmlns="http://www.w3.org/2000/svg" xmlns:xlink="http://www.w3.org/1999/xlink" x="0px" y="0px" viewBox="0 0 427.058 209.08"
	 enable-background="new 0 0 427.058 209.08" xml:space="preserve">
<g>
	<path fill="#1A2744" d="M0,191.163h4.076l4.59,8.75l1.74,3.864h0.108c-0.188-1.86-0.508-4.325-0.508-6.399v-6.215h3.79v17.593H9.72
		l-4.59-8.772l-1.74-3.843H3.282c0.188,1.941,0.508,4.298,0.508,6.371v6.244H0V191.163z"/>
	<path fill="#1A2744" d="M26.35,202.065c0-4.452,3.135-7.024,6.523-7.024s6.523,2.572,6.523,7.024c0,4.443-3.135,7.016-6.523,7.016
		C29.485,209.08,26.35,206.508,26.35,202.065z M35.33,202.065c0-2.317-0.815-3.822-2.457-3.822c-1.642,0-2.457,1.505-2.457,3.822
		s0.815,3.813,2.457,3.813C34.515,205.878,35.33,204.382,35.33,202.065z"/>
	<path fill="#1A2744" d="M51.617,195.365h3.237l0.286,2.34h0.098c0.975-1.788,2.439-2.664,3.805-2.664
		c0.765,0,1.21,0.099,1.597,0.27l-0.661,3.425c-0.476-0.117-0.87-0.216-1.445-0.216c-1.01,0-2.235,0.651-2.95,2.477v7.761h-3.968
		L51.617,195.365L51.617,195.365z"/>
	<path fill="#1A2744" d="M72.404,203.887v-5.409h-1.829v-2.961l2.051-0.152l0.464-3.557h3.282v3.557h3.21v3.113h-3.21v5.361
		c0,1.519,0.689,2.128,1.733,2.128c0.441,0,0.921-0.127,1.273-0.254l0.625,2.881c-0.711,0.226-1.677,0.486-2.976,0.486
		C73.719,209.08,72.404,206.99,72.404,203.887z"/>
	<path fill="#1A2744" d="M91.712,189.846h3.968v4.619l-0.178,2.427c1.003-0.915,2.309-1.852,4.134-1.852
		c2.913,0,4.154,2.055,4.154,5.402v8.313h-3.968v-7.806c0-1.927-0.517-2.53-1.663-2.53c-0.997,0-1.606,0.464-2.479,1.302v9.034
		h-3.968C91.712,208.755,91.712,189.846,91.712,189.846z"/>
	<path fill="#1A2744" d="M146.771,191.163h4.339l2.854,7.816c0.352,1.039,0.66,2.166,1.013,3.249h0.108
		c0.353-1.083,0.651-2.21,1.003-3.249l2.765-7.816h4.339v17.593h-3.622V202.3c0-1.715,0.321-4.275,0.508-5.978h-0.108l-1.443,4.163
		l-2.487,6.74h-2.208l-2.492-6.74l-1.404-4.163h-0.108c0.188,1.702,0.508,4.263,0.508,5.978v6.456h-3.567v-17.593H146.771z"/>
	<path fill="#1A2744" d="M175.903,205.042c0-2.822,2.245-4.35,7.542-4.908c-0.08-1.171-0.664-1.936-2.118-1.936
		c-1.124,0-2.245,0.473-3.543,1.209l-1.411-2.604c1.7-1.039,3.614-1.763,5.72-1.763c3.424,0,5.32,1.956,5.32,6.06v7.656h-3.237
		l-0.286-1.372h-0.099c-1.127,0.991-2.391,1.696-3.896,1.696C177.452,209.08,175.903,207.298,175.903,205.042z M183.444,204.865
		v-2.34c-2.822,0.382-3.742,1.188-3.742,2.2c0,0.863,0.594,1.285,1.537,1.285C182.137,206.011,182.74,205.567,183.444,204.865z"/>
	<path fill="#1A2744" d="M200.251,195.365h3.237l0.286,2.34h0.098c0.975-1.788,2.439-2.664,3.805-2.664
		c0.765,0,1.21,0.099,1.597,0.27l-0.661,3.425c-0.476-0.117-0.87-0.216-1.445-0.216c-1.01,0-2.235,0.651-2.95,2.477v7.761h-3.968
		v-13.393H200.251z"/>
	<path fill="#1A2744" d="M220.193,191.331c0-1.217,0.966-2.074,2.297-2.074s2.297,0.857,2.297,2.074
		c0,1.207-0.966,2.074-2.297,2.074S220.193,192.538,220.193,191.331z M220.501,195.365h3.968v13.392h-3.968V195.365z"/>
	<path fill="#1A2744" d="M237.457,195.365h3.237l0.286,1.695h0.098c1.127-1.083,2.477-2.02,4.303-2.02
		c2.912,0,4.154,2.055,4.154,5.402v8.313h-3.968v-7.806c0-1.927-0.518-2.53-1.664-2.53c-0.997,0-1.606,0.464-2.479,1.302v9.034
		h-3.968v-13.39H237.457z"/>
	<path fill="#1A2744" d="M261.628,202.065c0-4.344,3.1-7.024,6.316-7.024c3.814,0,5.704,2.772,5.704,6.428
		c0,0.715-0.089,1.43-0.166,1.753h-8.011c0.355,1.943,1.686,2.835,3.473,2.835c1.014,0,1.925-0.309,2.896-0.877l1.312,2.393
		c-1.372,0.949-3.163,1.509-4.751,1.509C264.584,209.08,261.628,206.498,261.628,202.065z M270.259,200.598
		c0-1.473-0.642-2.533-2.226-2.533c-1.254,0-2.336,0.841-2.606,2.533H270.259z"/>
	<path fill="#1A2744" d="M316.033,191.163h6.022c3.651,0,6.487,1.003,6.487,4.363c0,1.578-0.883,3.258-2.317,3.798v0.108
		c1.797,0.467,3.185,1.791,3.185,4.141c0,3.579-3.026,5.183-6.854,5.183h-6.523V191.163z M321.871,198.209
		c1.93,0,2.784-0.815,2.784-2.095c0-1.355-0.901-1.883-2.756-1.883h-1.889v3.978H321.871z M322.233,205.688
		c2.168,0,3.288-0.771,3.288-2.372c0-1.542-1.102-2.171-3.288-2.171h-2.223v4.543H322.233z"/>
	<path fill="#1A2744" d="M340.765,202.065c0-4.452,3.134-7.024,6.522-7.024s6.523,2.572,6.523,7.024
		c0,4.443-3.135,7.016-6.523,7.016S340.765,206.508,340.765,202.065z M349.744,202.065c0-2.317-0.815-3.822-2.457-3.822
		c-1.641,0-2.456,1.505-2.456,3.822s0.815,3.813,2.456,3.813C348.929,205.878,349.744,204.382,349.744,202.065z"/>
	<path fill="#1A2744" d="M365.254,202.065c0-4.452,3.134-7.024,6.522-7.024s6.523,2.572,6.523,7.024
		c0,4.443-3.135,7.016-6.523,7.016S365.254,206.508,365.254,202.065z M374.233,202.065c0-2.317-0.815-3.822-2.457-3.822
		c-1.641,0-2.456,1.505-2.456,3.822s0.815,3.813,2.456,3.813C373.418,205.878,374.233,204.382,374.233,202.065z"/>
	<path fill="#1A2744" d="M390.304,189.846h3.879v10.833h0.099l4.248-5.314h4.308l-4.69,5.52l5.046,7.872h-4.299l-3.013-5.223
		l-1.698,1.927v3.296h-3.879L390.304,189.846L390.304,189.846z"/>
	<path fill="#1A2744" d="M413.419,207.209l1.786-2.472c1.213,0.918,2.334,1.407,3.454,1.407c1.181,0,1.692-0.45,1.692-1.152
		c0-0.882-1.327-1.282-2.706-1.822c-1.642-0.635-3.543-1.725-3.543-3.938c0-2.493,2.026-4.192,5.116-4.192
		c2.052,0,3.579,0.829,4.72,1.696l-1.776,2.383c-0.952-0.692-1.893-1.144-2.819-1.144c-1.025,0-1.53,0.401-1.53,1.069
		c0,0.854,1.255,1.181,2.642,1.686c1.696,0.627,3.607,1.582,3.607,4.03c0,2.423-1.912,4.319-5.501,4.319
		C416.795,209.08,414.775,208.315,413.419,207.209z"/>
</g>
<path fill="#1A2744" d="M95.981,0v84.052L69.777,0H0.082v168.093h9V31.311l0.019-0.003c0.046-2.822,2.341-5.098,5.174-5.098
	c2.308,0,4.24,1.518,4.911,3.603l0.045-0.007l43.112,138.287h42.614h0.024V0H95.981z"/>
<g>
	<path fill="#1A2744" d="M407.278,84.175c12.233-12.551,19.78-29.691,19.78-48.602c0-12.999-3.571-25.16-9.77-35.573H372.41
		c2.312,7.748,3.567,15.952,3.567,24.453c0,23.237-9.274,44.299-24.306,59.722c15.032,15.423,24.306,36.484,24.306,59.722
		c0,8.408-1.231,16.523-3.493,24.196h44.952c6.106-10.357,9.623-22.423,9.623-35.316C427.058,113.866,419.511,96.726,407.278,84.175
		z"/>
	<rect x="328.805" fill="#1A2744" width="9" height="168.093"/>
</g>
<path fill="#1A2744" d="M281.983,0h-69.677v84.341L191.589,0H123.03v168.093h9V31.313l0.036-0.005
	c0.046-2.823,2.341-5.098,5.174-5.098c2.308,0,4.24,1.518,4.911,3.603l0.029-0.004l43.111,138.284h36.014V31.313l0.034-0.005
	c0.046-2.822,2.341-5.098,5.174-5.098c2.308,0,4.24,1.519,4.911,3.603l0.013-0.002l43.111,138.282h36.084V91.014L281.983,0z"/>
</svg>
