<?xml version="1.0" encoding="iso-8859-1"?>
<!-- Generator: Adobe Illustrator 30.2.1, SVG Export Plug-In . SVG Version: 9.03 Build 0)  -->
<svg version="1.1" id="&#x30EC;&#x30A4;&#x30E4;&#x30FC;_1"
	 xmlns="http://www.w3.org/2000/svg" xmlns:xlink="http://www.w3.org/1999/xlink" x="0px" y="0px" viewBox="0 0 385.207 269.479"
	 enable-background="new 0 0 385.207 269.479" xml:space="preserve">
<g>
	<path fill="#00265D" d="M375.139,110.492c-2.488,0-4.499-2.011-4.499-4.499c0-2.488,2.011-4.503,4.499-4.503h10.052
		c-2.386-47.725-40.746-86.13-88.434-88.593v10.211c0,2.484-2.011,4.499-4.491,4.499c-2.492,0-4.503-2.015-4.503-4.499V12.877
		c-48.05,2.105-86.834,40.649-89.236,88.613h10.834c2.48,0,4.499,2.015,4.499,4.503c0,2.488-2.019,4.499-4.499,4.499h-10.842
		c2.191,48.164,41.048,86.932,89.245,89.041v-10.655c0-2.488,2.011-4.503,4.503-4.503c2.479,0,4.491,2.015,4.491,4.503v10.634
		c47.83-2.467,86.272-41.105,88.45-89.02H375.139z M291.891,168.819c-34.533,0-62.63-28.084-62.63-62.614
		c0-34.533,28.097-62.614,62.63-62.614c34.521,0,62.605,28.08,62.605,62.614C354.497,140.734,326.413,168.819,291.891,168.819"/>
	<polygon fill="#00265D" points="303.588,124.817 296.39,155.706 288.239,155.706 295.437,124.817 276.457,124.817 276.457,116.788 
		287.311,51.723 296.573,51.723 285.719,116.788 295.437,116.788 295.437,108.12 303.588,108.12 303.588,116.788 307.835,116.788 
		307.835,124.817 	"/>
	<path fill="#B71253" d="M242.319,127.863v-6.868l15.61-18.142c1.535-1.824,2.178-3.111,2.178-5.044c0-3.111-1.82-5.228-5.048-5.228
		c-2.52,0-5.106,1.291-5.106,5.342h-7.634c0-7.63,5.582-12.214,12.739-12.214c7.394,0,12.674,4.641,12.674,12.161
		c0,4.051-1.576,6.217-4.454,9.564l-11.681,13.562h16.135v6.868H242.319z"/>
	<path fill="#B71253" d="M338.902,124.853c-1.869,1.873-4.865,3.404-9.21,3.404c-4.348,0-7.52-1.531-9.327-3.347
		c-2.59-2.577-3.18-5.635-3.412-8.688h7.626c0.415,3.282,1.942,5.171,5.114,5.171c1.466,0,2.695-0.411,3.636-1.364
		c1.352-1.34,1.653-3.575,1.653-6.213c0-4.812-1.417-7.508-5.114-7.508c-3.106,0-4.523,1.751-5.057,3.391h-6.983V86.105h23.834
		v6.872h-16.908v8.982c1.124-1.059,3.469-2.117,6.282-2.117c3.469,0,6.107,1.116,7.817,2.817c3.278,3.282,3.746,7.227,3.746,11.156
		C342.599,118.514,341.964,121.799,338.902,124.853"/>
	<path fill="#B71253" d="M169.432,0l-28.723,40.815h13.33v95.917c0,12.748-10.362,23.109-23.085,23.109
		c-3.896,0-7.565-0.973-10.777-2.683c-3.106,10.052-8.493,19.087-15.471,26.635c7.776,4.352,16.713,6.864,26.248,6.864
		c29.709,0,53.872-24.192,53.872-53.925V40.815h13.338L169.432,0z"/>
	<path fill="#B71253" d="M77.047,20.405v116.327c0,12.747-10.37,23.109-23.125,23.109c-12.739,0-23.101-10.362-23.101-23.109V20.405
		H0v116.327c0,29.733,24.2,53.925,53.921,53.925c29.741,0,53.937-24.192,53.937-53.925V20.405H77.047z"/>
	<path fill="#231815" d="M21.527,257.685l-4.23-15.695l-4.287,15.695c-0.33,1.193-0.594,2.052-0.786,2.569
		c-0.2,0.517-0.542,0.977-1.034,1.392c-0.485,0.411-1.132,0.619-1.942,0.619c-0.652,0-1.193-0.126-1.612-0.375
		c-0.423-0.236-0.765-0.578-1.026-1.026c-0.265-0.452-0.476-0.977-0.643-1.588c-0.167-0.615-0.318-1.177-0.448-1.702l-4.356-17.617
		c-0.26-1.018-0.391-1.796-0.391-2.329c0-0.684,0.236-1.254,0.713-1.718c0.476-0.468,1.063-0.7,1.771-0.7
		c0.961,0,1.608,0.313,1.938,0.932c0.334,0.619,0.631,1.519,0.875,2.695l3.428,15.268l3.839-14.291
		c0.289-1.087,0.541-1.922,0.77-2.496c0.224-0.574,0.594-1.067,1.107-1.478c0.509-0.423,1.201-0.631,2.085-0.631
		c0.892,0,1.588,0.224,2.085,0.655c0.493,0.436,0.834,0.904,1.026,1.421c0.187,0.509,0.444,1.352,0.761,2.528l3.872,14.291
		l3.428-15.268c0.167-0.794,0.326-1.425,0.476-1.877c0.146-0.452,0.407-0.851,0.765-1.209c0.366-0.358,0.892-0.541,1.58-0.541
		c0.692,0,1.278,0.232,1.759,0.692c0.48,0.456,0.725,1.026,0.725,1.726c0,0.484-0.134,1.266-0.395,2.329l-4.352,17.617
		c-0.297,1.185-0.55,2.06-0.745,2.606c-0.195,0.558-0.529,1.034-0.997,1.458c-0.468,0.411-1.132,0.627-1.987,0.627
		c-0.81,0-1.462-0.208-1.95-0.611c-0.485-0.407-0.826-0.859-1.018-1.36C22.138,259.786,21.873,258.919,21.527,257.685"/>
	<path fill="#231815" d="M41.701,238.171v7.198c0.619-0.708,1.234-1.274,1.82-1.686c0.59-0.415,1.242-0.725,1.958-0.941
		c0.717-0.199,1.486-0.309,2.305-0.309c1.242,0,2.345,0.261,3.306,0.786c0.961,0.517,1.718,1.282,2.26,2.276
		c0.35,0.586,0.582,1.242,0.7,1.954c0.118,0.725,0.175,1.551,0.175,2.5v9.344c0,0.985-0.224,1.714-0.668,2.223
		c-0.444,0.501-1.038,0.749-1.775,0.749c-1.604,0-2.406-0.993-2.406-2.972v-8.24c0-1.568-0.236-2.76-0.7-3.603
		c-0.468-0.843-1.352-1.262-2.65-1.262c-0.871,0-1.661,0.244-2.361,0.745c-0.696,0.493-1.217,1.168-1.563,2.027
		c-0.265,0.725-0.399,2.019-0.399,3.884v6.449c0,0.969-0.216,1.698-0.647,2.207c-0.436,0.509-1.034,0.765-1.804,0.765
		c-1.6,0-2.398-0.985-2.398-2.968v-21.118c0-0.985,0.207-1.726,0.627-2.219c0.419-0.501,1.01-0.749,1.771-0.749
		c0.769,0,1.368,0.256,1.804,0.749C41.485,236.461,41.701,237.194,41.701,238.171"/>
	<path fill="#231815" d="M71.361,259.52c-1.177,0.916-2.317,1.6-3.42,2.06c-1.099,0.456-2.337,0.684-3.705,0.684
		c-1.25,0-2.349-0.244-3.29-0.737c-0.949-0.493-1.682-1.169-2.194-2.015c-0.513-0.843-0.765-1.755-0.765-2.74
		c0-1.335,0.423-2.475,1.27-3.412c0.843-0.94,2.007-1.567,3.485-1.893c0.309-0.073,1.075-0.232,2.3-0.484
		c1.226-0.248,2.28-0.476,3.155-0.684c0.871-0.208,1.82-0.46,2.846-0.765c-0.065-1.295-0.318-2.239-0.778-2.846
		c-0.46-0.602-1.409-0.908-2.85-0.908c-1.238,0-2.17,0.175-2.793,0.525c-0.623,0.342-1.16,0.867-1.612,1.559
		c-0.444,0.7-0.757,1.152-0.945,1.376c-0.183,0.224-0.578,0.334-1.185,0.334c-0.55,0-1.022-0.183-1.421-0.533
		c-0.399-0.35-0.599-0.802-0.599-1.352c0-0.859,0.305-1.694,0.908-2.504c0.611-0.81,1.555-1.478,2.838-2.003
		c1.287-0.525,2.887-0.79,4.796-0.79c2.146,0,3.827,0.257,5.052,0.765c1.226,0.509,2.089,1.311,2.594,2.41
		c0.509,1.095,0.761,2.545,0.761,4.356c0,1.152-0.004,2.121-0.012,2.919c-0.004,0.794-0.012,1.686-0.025,2.663
		c0,0.916,0.151,1.869,0.452,2.862c0.305,0.993,0.456,1.633,0.456,1.918c0,0.501-0.232,0.953-0.7,1.36
		c-0.468,0.411-1.002,0.619-1.6,0.619c-0.493,0-0.985-0.236-1.47-0.7C72.423,261.088,71.91,260.412,71.361,259.52 M71.043,252.469
		c-0.717,0.261-1.755,0.541-3.119,0.835c-1.364,0.285-2.304,0.509-2.83,0.643c-0.521,0.134-1.022,0.407-1.498,0.806
		c-0.476,0.395-0.717,0.953-0.717,1.669c0,0.737,0.281,1.368,0.839,1.885c0.562,0.517,1.295,0.769,2.199,0.769
		c0.965,0,1.848-0.208,2.667-0.635c0.818-0.415,1.417-0.965,1.8-1.633c0.436-0.729,0.66-1.946,0.66-3.64V252.469z"/>
	<path fill="#231815" d="M80.124,242.886h0.537v-2.935c0-0.786,0.02-1.396,0.057-1.844c0.041-0.444,0.163-0.835,0.35-1.152
		c0.191-0.334,0.464-0.603,0.818-0.81c0.358-0.216,0.753-0.318,1.193-0.318c0.615,0,1.172,0.236,1.673,0.692
		c0.33,0.318,0.541,0.688,0.627,1.144c0.089,0.444,0.134,1.071,0.134,1.901v3.322h1.787c0.688,0,1.217,0.159,1.576,0.493
		c0.362,0.318,0.545,0.741,0.545,1.25c0,0.66-0.256,1.111-0.774,1.376c-0.521,0.261-1.262,0.387-2.223,0.387h-0.912v8.969
		c0,0.765,0.029,1.352,0.082,1.767c0.053,0.407,0.2,0.741,0.427,0.993c0.232,0.265,0.611,0.383,1.136,0.383
		c0.285,0,0.672-0.049,1.16-0.143c0.485-0.106,0.867-0.159,1.14-0.159c0.391,0,0.749,0.159,1.063,0.476
		c0.313,0.309,0.472,0.7,0.472,1.16c0,0.786-0.431,1.384-1.286,1.796c-0.855,0.423-2.085,0.631-3.693,0.631
		c-1.519,0-2.671-0.265-3.449-0.774c-0.79-0.509-1.299-1.217-1.539-2.121c-0.244-0.908-0.366-2.117-0.366-3.628v-9.352h-0.643
		c-0.704,0-1.238-0.167-1.604-0.501c-0.375-0.326-0.558-0.745-0.558-1.262c0-0.509,0.196-0.932,0.582-1.25
		C78.826,243.045,79.383,242.886,80.124,242.886"/>
	<polygon fill="#231815" points="96.529,244.962 92.84,244.962 91.9,240.064 91.9,235.667 97.364,235.667 97.364,240.064 	"/>
	<path fill="#231815" d="M117.251,255.864c0,1.352-0.326,2.512-0.977,3.469c-0.656,0.969-1.624,1.694-2.903,2.186
		c-1.279,0.501-2.83,0.745-4.666,0.745c-1.742,0-3.245-0.269-4.495-0.81c-1.25-0.533-2.166-1.209-2.76-2.011
		s-0.892-1.616-0.892-2.427c0-0.541,0.183-0.993,0.57-1.376c0.379-0.387,0.855-0.57,1.441-0.57c0.513,0,0.9,0.118,1.173,0.37
		c0.277,0.248,0.537,0.599,0.786,1.05c0.501,0.875,1.103,1.519,1.795,1.95c0.7,0.419,1.649,0.635,2.858,0.635
		c0.973,0,1.771-0.216,2.398-0.643c0.627-0.44,0.941-0.941,0.941-1.494c0-0.851-0.326-1.482-0.973-1.869
		c-0.651-0.399-1.722-0.774-3.208-1.132c-1.681-0.411-3.049-0.851-4.096-1.311c-1.054-0.452-1.893-1.058-2.524-1.804
		c-0.635-0.749-0.949-1.669-0.949-2.768c0-0.969,0.289-1.893,0.875-2.769c0.582-0.867,1.441-1.555,2.581-2.072
		c1.128-0.517,2.504-0.782,4.112-0.782c1.254,0,2.386,0.134,3.396,0.399c1.006,0.261,1.844,0.611,2.516,1.05
		c0.672,0.444,1.181,0.928,1.535,1.462c0.35,0.533,0.525,1.059,0.525,1.568c0,0.554-0.187,1.018-0.562,1.376
		c-0.374,0.358-0.908,0.533-1.596,0.533c-0.497,0-0.92-0.146-1.27-0.432c-0.354-0.285-0.753-0.708-1.205-1.278
		c-0.366-0.48-0.802-0.859-1.303-1.148c-0.505-0.285-1.181-0.419-2.036-0.419c-0.883,0-1.62,0.183-2.202,0.558
		c-0.586,0.37-0.875,0.843-0.875,1.397c0,0.509,0.212,0.932,0.643,1.258c0.427,0.334,1.006,0.603,1.734,0.818
		c0.721,0.216,1.726,0.468,3.005,0.778c1.506,0.366,2.74,0.814,3.697,1.323c0.957,0.509,1.678,1.12,2.17,1.812
		C117.003,254.187,117.251,254.972,117.251,255.864"/>
	<path fill="#231815" d="M143.171,259.522v-0.627c-0.586,0.737-1.197,1.352-1.84,1.852c-0.643,0.493-1.343,0.867-2.109,1.112
		c-0.761,0.24-1.633,0.358-2.606,0.358c-1.181,0-2.239-0.236-3.176-0.725c-0.936-0.493-1.661-1.16-2.17-2.011
		c-0.603-1.042-0.908-2.528-0.908-4.458v-9.678c0-0.973,0.216-1.702,0.66-2.182c0.436-0.484,1.022-0.729,1.738-0.729
		c0.737,0,1.327,0.244,1.779,0.737c0.452,0.489,0.676,1.209,0.676,2.182v7.805c0,1.14,0.093,2.085,0.285,2.85
		c0.191,0.769,0.537,1.376,1.034,1.812c0.493,0.428,1.164,0.643,2.011,0.643c0.826,0,1.604-0.236,2.333-0.729
		c0.729-0.489,1.262-1.124,1.596-1.909c0.273-0.692,0.415-2.203,0.415-4.54v-5.932c0-0.973,0.22-1.694,0.676-2.182
		c0.452-0.493,1.042-0.737,1.763-0.737c0.725,0,1.311,0.244,1.751,0.729c0.44,0.48,0.66,1.209,0.66,2.182v14.119
		c0,0.941-0.212,1.633-0.631,2.101c-0.427,0.46-0.969,0.692-1.637,0.692c-0.668,0-1.213-0.24-1.649-0.725
		C143.391,261.057,143.171,260.381,143.171,259.522"/>
	<path fill="#231815" d="M157.089,245.186v0.594c0.916-1.136,1.869-1.97,2.854-2.512c0.989-0.525,2.109-0.794,3.359-0.794
		c1.498,0,2.878,0.387,4.14,1.16c1.258,0.769,2.26,1.909,2.988,3.395c0.733,1.478,1.099,3.245,1.099,5.281
		c0,1.502-0.216,2.878-0.635,4.132c-0.423,1.258-1.001,2.308-1.742,3.159c-0.737,0.851-1.604,1.51-2.614,1.97
		c-1.006,0.456-2.084,0.684-3.237,0.684c-1.392,0-2.561-0.277-3.51-0.835c-0.945-0.558-1.848-1.376-2.703-2.455v7.308
		c0,2.138-0.778,3.204-2.341,3.204c-0.92,0-1.523-0.281-1.824-0.831c-0.293-0.554-0.448-1.356-0.448-2.422v-21.025
		c0-0.924,0.204-1.616,0.611-2.076c0.403-0.46,0.957-0.692,1.661-0.692c0.688,0,1.254,0.24,1.69,0.717
		C156.874,243.618,157.089,244.302,157.089,245.186 M166.633,252.278c0-1.287-0.195-2.394-0.59-3.31
		c-0.387-0.92-0.932-1.629-1.628-2.121c-0.696-0.493-1.466-0.741-2.309-0.741c-1.348,0-2.479,0.525-3.4,1.584
		c-0.924,1.059-1.384,2.618-1.384,4.674c0,1.942,0.456,3.452,1.376,4.527c0.912,1.071,2.052,1.612,3.408,1.612
		c0.806,0,1.555-0.228,2.243-0.7c0.692-0.476,1.246-1.177,1.665-2.121C166.425,254.741,166.633,253.613,166.633,252.278"/>
	<path fill="#231815" d="M190.186,257.613h9.311c0.932,0,1.637,0.191,2.129,0.566c0.489,0.387,0.729,0.896,0.729,1.551
		c0,0.578-0.191,1.071-0.578,1.478c-0.387,0.403-0.977,0.603-1.763,0.603h-13.138c-0.888,0-1.58-0.244-2.08-0.737
		c-0.501-0.493-0.749-1.075-0.749-1.734c0-0.432,0.159-0.993,0.476-1.702c0.326-0.708,0.672-1.266,1.054-1.669
		c1.58-1.641,3.005-3.045,4.283-4.214c1.27-1.173,2.178-1.942,2.728-2.317c0.973-0.692,1.783-1.376,2.435-2.076
		c0.647-0.692,1.136-1.405,1.482-2.137c0.338-0.733,0.505-1.445,0.505-2.146c0-0.765-0.179-1.449-0.541-2.044
		c-0.367-0.607-0.855-1.075-1.482-1.401c-0.627-0.334-1.311-0.501-2.04-0.501c-1.559,0-2.785,0.684-3.676,2.052
		c-0.122,0.175-0.318,0.668-0.603,1.462c-0.273,0.798-0.59,1.409-0.941,1.836c-0.35,0.432-0.863,0.647-1.539,0.647
		c-0.599,0-1.091-0.199-1.482-0.59c-0.395-0.399-0.586-0.928-0.586-1.612c0-0.822,0.179-1.681,0.55-2.569
		c0.366-0.892,0.92-1.702,1.649-2.427c0.729-0.725,1.657-1.311,2.777-1.759c1.132-0.452,2.443-0.676,3.953-0.676
		c1.82,0,3.375,0.289,4.662,0.859c0.834,0.383,1.563,0.908,2.194,1.576c0.635,0.668,1.124,1.433,1.478,2.304
		c0.35,0.875,0.529,1.791,0.529,2.72c0,1.482-0.362,2.826-1.103,4.027c-0.725,1.209-1.478,2.154-2.235,2.838
		c-0.761,0.684-2.04,1.767-3.835,3.229c-1.783,1.453-3.017,2.593-3.676,3.404C190.777,256.771,190.48,257.162,190.186,257.613"/>
	<path fill="#231815" d="M216.572,259.547v-3.326h-8.961c-1.132,0-1.987-0.252-2.545-0.761c-0.57-0.517-0.851-1.209-0.851-2.093
		c0-0.22,0.037-0.452,0.126-0.684c0.077-0.236,0.208-0.476,0.374-0.729c0.167-0.265,0.338-0.509,0.517-0.749
		c0.179-0.24,0.395-0.525,0.66-0.875l9.47-12.658c0.619-0.827,1.119-1.433,1.519-1.808c0.407-0.379,0.879-0.562,1.437-0.562
		c1.804,0,2.703,1.034,2.703,3.106v13.814h0.774c0.916,0,1.653,0.134,2.203,0.383c0.558,0.244,0.827,0.794,0.827,1.637
		c0,0.692-0.224,1.193-0.676,1.51c-0.452,0.318-1.132,0.468-2.036,0.468h-1.091v3.326c0,0.912-0.195,1.596-0.603,2.052
		c-0.407,0.444-0.945,0.668-1.62,0.668c-0.668,0-1.201-0.232-1.608-0.692C216.78,261.114,216.572,260.438,216.572,259.547
		 M208.89,252.222h7.683v-10.353L208.89,252.222z"/>
	<path fill="#231815" d="M242.434,240.072h-8.481l-1.014,5.757c1.685-0.908,3.249-1.352,4.67-1.352c1.148,0,2.211,0.216,3.208,0.643
		c0.993,0.432,1.864,1.018,2.61,1.775c0.749,0.753,1.335,1.653,1.763,2.687c0.427,1.034,0.643,2.146,0.643,3.339
		c0,1.726-0.391,3.302-1.156,4.715c-0.778,1.417-1.889,2.54-3.347,3.383c-1.453,0.827-3.131,1.246-5.032,1.246
		c-2.129,0-3.86-0.395-5.183-1.185c-1.327-0.778-2.272-1.694-2.825-2.712s-0.83-1.909-0.83-2.671c0-0.468,0.195-0.908,0.586-1.319
		c0.383-0.423,0.867-0.631,1.449-0.631c0.997,0,1.746,0.582,2.231,1.726c0.476,1.067,1.124,1.893,1.934,2.475
		c0.802,0.594,1.71,0.888,2.708,0.888c0.916,0,1.722-0.236,2.414-0.713c0.684-0.48,1.217-1.132,1.588-1.966
		c0.379-0.826,0.566-1.779,0.566-2.838c0-1.144-0.2-2.117-0.607-2.927c-0.403-0.802-0.945-1.413-1.62-1.812
		c-0.68-0.399-1.437-0.599-2.272-0.599c-1.022,0-1.751,0.13-2.194,0.375c-0.44,0.256-1.067,0.692-1.901,1.311
		c-0.827,0.631-1.506,0.941-2.04,0.941c-0.586,0-1.103-0.208-1.555-0.635c-0.456-0.415-0.676-0.9-0.676-1.425
		c0-0.073,0.061-0.468,0.196-1.217l1.502-8.534c0.163-1.022,0.472-1.763,0.924-2.231c0.456-0.464,1.193-0.692,2.211-0.692h9.425
		c1.848,0,2.773,0.708,2.773,2.121c0,0.623-0.224,1.124-0.676,1.502C243.973,239.88,243.314,240.072,242.434,240.072"/>
	<path fill="#231815" d="M276.337,256.214c0,0.611-0.183,1.258-0.545,1.95c-0.367,0.688-0.916,1.352-1.665,1.979
		c-0.741,0.627-1.677,1.128-2.805,1.51c-1.136,0.383-2.402,0.566-3.819,0.566c-3.013,0-5.362-0.875-7.052-2.634
		c-1.694-1.759-2.537-4.112-2.537-7.06c0-1.995,0.383-3.77,1.16-5.305c0.769-1.543,1.893-2.728,3.359-3.562
		c1.461-0.843,3.212-1.266,5.244-1.266c1.266,0,2.418,0.191,3.477,0.558c1.046,0.375,1.938,0.851,2.675,1.433
		c0.725,0.578,1.291,1.201,1.678,1.861c0.387,0.66,0.574,1.278,0.574,1.853c0,0.578-0.212,1.075-0.647,1.478
		c-0.432,0.407-0.965,0.607-1.576,0.607c-0.407,0-0.741-0.098-1.01-0.313c-0.273-0.204-0.566-0.537-0.904-1.002
		c-0.594-0.912-1.217-1.58-1.865-2.036c-0.647-0.452-1.47-0.684-2.471-0.684c-1.441,0-2.602,0.566-3.481,1.694
		c-0.879,1.124-1.319,2.659-1.319,4.605c0,0.924,0.11,1.767,0.338,2.528c0.22,0.774,0.554,1.425,0.981,1.966
		c0.428,0.541,0.945,0.953,1.555,1.23c0.603,0.281,1.27,0.423,1.995,0.423c0.977,0,1.812-0.224,2.508-0.676
		c0.696-0.452,1.315-1.144,1.848-2.076c0.297-0.55,0.619-0.969,0.965-1.278c0.342-0.318,0.77-0.468,1.266-0.468
		c0.594,0,1.087,0.228,1.482,0.68C276.138,255.221,276.337,255.705,276.337,256.214"/>
	<path fill="#231815" d="M298.849,252.357c0,1.453-0.232,2.793-0.684,4.014c-0.448,1.225-1.107,2.284-1.962,3.159
		c-0.859,0.884-1.881,1.559-3.07,2.028c-1.193,0.468-2.532,0.708-4.018,0.708c-1.482,0-2.805-0.24-3.986-0.717
		c-1.181-0.476-2.203-1.16-3.066-2.044c-0.867-0.892-1.519-1.934-1.962-3.151c-0.448-1.205-0.672-2.545-0.672-4.006
		c0-1.478,0.224-2.821,0.68-4.055c0.452-1.226,1.099-2.276,1.946-3.143c0.843-0.863,1.869-1.539,3.074-2.011
		c1.201-0.468,2.528-0.708,3.986-0.708c1.474,0,2.809,0.24,4.018,0.717c1.201,0.484,2.235,1.16,3.086,2.036
		c0.859,0.892,1.51,1.934,1.954,3.159C298.616,249.556,298.849,250.896,298.849,252.357 M293.951,252.357
		c0-1.979-0.436-3.522-1.311-4.637c-0.875-1.095-2.052-1.653-3.526-1.653c-0.957,0-1.8,0.248-2.524,0.741
		c-0.725,0.493-1.287,1.221-1.682,2.178c-0.387,0.969-0.586,2.093-0.586,3.371c0,1.274,0.195,2.378,0.578,3.33
		c0.391,0.957,0.945,1.677,1.665,2.186c0.721,0.505,1.568,0.757,2.549,0.757c1.474,0,2.65-0.558,3.526-1.669
		C293.515,255.855,293.951,254.32,293.951,252.357"/>
	<path fill="#231815" d="M304.097,262.266c-0.733,0-1.368-0.24-1.901-0.717c-0.534-0.476-0.798-1.144-0.798-2.003
		c0-0.733,0.252-1.36,0.757-1.885c0.509-0.525,1.14-0.786,1.885-0.786c0.749,0,1.384,0.261,1.909,0.778
		c0.529,0.525,0.79,1.152,0.79,1.893c0,0.843-0.26,1.51-0.79,1.995C305.424,262.017,304.806,262.266,304.097,262.266"/>
	<path fill="#231815" d="M315.595,262.297c-0.782,0-1.453-0.248-2.027-0.725c-0.566-0.484-0.851-1.16-0.851-2.027
		c0-0.753,0.277-1.384,0.834-1.901c0.558-0.509,1.209-0.769,1.971-0.769c0.57,0,1.087,0.159,1.551,0.468
		c0.464,0.309,0.819,0.765,1.083,1.368c0.26,0.607,0.391,1.344,0.391,2.227c0,1.185-0.248,2.284-0.749,3.314
		c-0.493,1.034-1.103,1.857-1.82,2.451c-0.721,0.603-1.364,0.908-1.95,0.908c-0.366,0-0.668-0.13-0.896-0.374
		c-0.232-0.248-0.342-0.525-0.342-0.843c0-0.493,0.236-0.884,0.725-1.185C314.903,264.435,315.595,263.458,315.595,262.297"/>
	<path fill="#231815" d="M332.883,259.299v-21.122c0-0.977,0.22-1.714,0.651-2.207c0.432-0.505,1.014-0.757,1.747-0.757
		c0.737,0,1.331,0.248,1.779,0.749c0.452,0.493,0.672,1.23,0.672,2.215v21.122c0,0.993-0.22,1.734-0.684,2.227
		c-0.452,0.493-1.038,0.741-1.767,0.741c-0.704,0-1.286-0.265-1.73-0.774C333.107,260.985,332.883,260.252,332.883,259.299"/>
	<path fill="#231815" d="M343.054,242.886h0.538v-2.935c0-0.786,0.02-1.396,0.057-1.844c0.049-0.444,0.163-0.835,0.35-1.152
		c0.191-0.334,0.464-0.603,0.823-0.81c0.354-0.216,0.753-0.318,1.193-0.318c0.611,0,1.168,0.236,1.669,0.692
		c0.326,0.318,0.541,0.688,0.627,1.144c0.089,0.444,0.134,1.071,0.134,1.901v3.322h1.783c0.696,0,1.221,0.159,1.58,0.493
		c0.362,0.318,0.541,0.741,0.541,1.25c0,0.66-0.257,1.111-0.77,1.376c-0.521,0.261-1.262,0.387-2.223,0.387h-0.912v8.969
		c0,0.765,0.029,1.352,0.082,1.767c0.053,0.407,0.2,0.741,0.427,0.993c0.232,0.265,0.615,0.383,1.136,0.383
		c0.281,0,0.668-0.049,1.156-0.143c0.489-0.106,0.867-0.159,1.144-0.159c0.391,0,0.749,0.159,1.058,0.476
		c0.318,0.309,0.476,0.7,0.476,1.16c0,0.786-0.431,1.384-1.286,1.796c-0.855,0.423-2.085,0.631-3.693,0.631
		c-1.519,0-2.671-0.265-3.449-0.774c-0.79-0.509-1.299-1.217-1.543-2.121c-0.24-0.908-0.362-2.117-0.362-3.628v-9.352h-0.643
		c-0.704,0-1.238-0.167-1.604-0.501c-0.375-0.326-0.558-0.745-0.558-1.262c0-0.509,0.196-0.932,0.582-1.25
		C341.751,243.045,342.317,242.886,343.054,242.886"/>
	<path fill="#231815" d="M369.063,259.491v-0.484c-0.652,0.745-1.299,1.36-1.938,1.828c-0.635,0.468-1.327,0.818-2.068,1.067
		c-0.745,0.236-1.559,0.362-2.439,0.362c-1.164,0-2.247-0.244-3.237-0.737c-0.997-0.493-1.857-1.201-2.577-2.125
		c-0.733-0.912-1.287-1.995-1.657-3.229c-0.378-1.238-0.562-2.573-0.562-4.014c0-3.045,0.741-5.423,2.231-7.125
		c1.49-1.702,3.444-2.553,5.875-2.553c1.404,0,2.589,0.24,3.55,0.725c0.961,0.485,1.909,1.234,2.821,2.235v-7.19
		c0-1.001,0.2-1.759,0.603-2.268c0.399-0.517,0.965-0.769,1.706-0.769c0.737,0,1.307,0.24,1.706,0.708
		c0.399,0.468,0.598,1.16,0.598,2.076v21.476c0,0.928-0.212,1.629-0.643,2.093c-0.427,0.468-0.985,0.696-1.661,0.696
		c-0.668,0-1.217-0.236-1.653-0.721C369.282,261.066,369.063,260.382,369.063,259.491 M359.479,252.333
		c0,1.319,0.208,2.451,0.615,3.371c0.415,0.932,0.973,1.633,1.686,2.101c0.717,0.468,1.498,0.7,2.341,0.7
		c0.859,0,1.637-0.216,2.345-0.66c0.712-0.456,1.279-1.14,1.702-2.052c0.419-0.924,0.631-2.076,0.631-3.461
		c0-1.295-0.212-2.41-0.631-3.347c-0.423-0.932-0.993-1.641-1.718-2.142c-0.716-0.493-1.502-0.737-2.361-0.737
		c-0.9,0-1.694,0.252-2.394,0.761c-0.704,0.501-1.25,1.226-1.633,2.17C359.674,249.988,359.479,251.083,359.479,252.333"/>
	<path fill="#231815" d="M381.799,262.266c-0.737,0-1.368-0.24-1.901-0.717c-0.538-0.476-0.798-1.144-0.798-2.003
		c0-0.733,0.252-1.36,0.761-1.885c0.509-0.525,1.14-0.786,1.881-0.786c0.749,0,1.38,0.261,1.913,0.778
		c0.525,0.525,0.786,1.152,0.786,1.893c0,0.843-0.26,1.51-0.786,1.995C383.122,262.017,382.508,262.266,381.799,262.266"/>
</g>
</svg>
