<?xml version="1.0" encoding="iso-8859-1"?>
<!-- Generator: Adobe Illustrator 30.2.1, SVG Export Plug-In . SVG Version: 9.03 Build 0)  -->
<svg version="1.1" id="&#x30EC;&#x30A4;&#x30E4;&#x30FC;_1"
	 xmlns="http://www.w3.org/2000/svg" xmlns:xlink="http://www.w3.org/1999/xlink" x="0px" y="0px" viewBox="0 0 392.848 82.242"
	 enable-background="new 0 0 392.848 82.242" xml:space="preserve">
<g>
	<path fill="#231815" d="M319.11,52.227h5.72v-18.09h6.61v11.745h5.719V34.137h6.613v18.09h5.716v-18.09h5.076V28.42h-5.076V6.977
		h-12.329V0.06h-5.719v6.917h-12.33V28.42h-5.074v5.717h5.074V52.227z M331.44,19.528v8.893h-6.61V12.695h18.942V28.42h-6.613
		v-8.893H331.44z"/>
	<path fill="#231815" d="M380.094,55.84h-56.411v20.662h-9.806v5.719h76.482v-5.719h-10.266V55.84z M374.375,61.555v14.946h-11.18
		V61.555H374.375z M357.478,61.555v14.946h-11.182V61.555H357.478z M340.58,61.555v14.946H329.4V61.555H340.58z"/>
	<path fill="#231815" d="M44.1,69.855h25.291V64.17H44.1v-6.703h30.916v-5.686H19.511c-0.881-2.943-3.138-5.266-6.053-6.255
		l5.087-5.628v8.07h5.684v-8.182l7.4,8.182h7.661L28.159,35.659h10.919v-19.38h-14.85v-4.646h18.546V5.946H24.228V0.105h-5.684
		v5.841H0v5.687h18.545v4.646H3.661v19.38h11.051L4.339,47.133L4.256,47.23c-2.16,1.824-3.393,4.466-3.393,7.285
		c0,5.255,4.274,9.53,9.527,9.53c4.119,0,7.789-2.687,9.056-6.579h18.969v19.092H23.676V62.298h-5.684v14.261H5.627v5.684H76.89
		v-5.684H44.1V69.855z M33.393,21.963v8.012h-9.165v-8.012H33.393z M10.39,50.672c2.121,0,3.847,1.725,3.847,3.844
		c0,2.118-1.726,3.842-3.847,3.842c-2.12,0-3.845-1.724-3.845-3.842C6.545,52.396,8.27,50.672,10.39,50.672z M18.545,21.963v8.012
		h-9.2v-8.012H18.545z"/>
	<path fill="#231815" d="M141.639,28.355h11.634c1.153,4.151,4.893,7.016,9.23,7.016c5.292,0,9.597-4.304,9.597-9.595
		s-4.305-9.595-9.597-9.595c-4.063,0-7.736,2.636-9.062,6.455h-11.803V0.28h-5.717v22.355h-23.587v5.719h23.587v3.116l-31.77,35.704
		h7.651l24.118-27.102v24.554h-12.159v5.719h12.159v11.89h5.717v-11.89h12.158v-5.719h-12.158V40.07l24.12,27.104h7.654
		l-31.774-35.707V28.355z M158.632,25.776c0-2.137,1.737-3.875,3.872-3.875c2.138,0,3.877,1.739,3.877,3.875
		c0,2.136-1.739,3.874-3.877,3.874C160.369,29.65,158.632,27.912,158.632,25.776z"/>
	<path fill="#231815" d="M242.178,82.148h5.715V71.031h36.062v11.117h5.719V38.362h-47.496V82.148z M247.892,51.837v-7.758h36.062
		v7.758H247.892z M283.955,57.552v7.763h-36.062v-7.763H283.955z"/>
	<path fill="#231815" d="M289.673,0h-47.496v26.904h-15.041v10.289c-3.985,1.243-6.735,4.95-6.735,9.148
		c0,5.289,4.304,9.593,9.595,9.593c5.289,0,9.593-4.304,9.593-9.593c0-4.195-2.75-7.903-6.734-9.148v-4.571h66.143v11.857h5.719
		V26.904h-15.042V0z M229.995,42.467c2.138,0,3.877,1.738,3.877,3.874c0,2.138-1.739,3.877-3.877,3.877s-3.876-1.739-3.876-3.877
		C226.119,44.206,227.857,42.467,229.995,42.467z M283.956,19.171v7.734h-14.357v-7.734H283.956z M283.956,5.717v7.737H263.88v13.45
		h-15.986V5.717H283.956z"/>
	<path fill="#231815" d="M377.639,35.529l-6.05,6.05l-4.09-4.09h-8.086l8.135,8.135l-6.607,6.603h8.085l2.563-2.562l2.562,2.562
		h8.084l-6.604-6.603l8.292-8.292c4.979-0.345,8.923-4.505,8.923-9.568c0-4.198-2.749-7.904-6.733-9.147V3.976h-28.073v20.827h5.716
		V9.69h16.64v8.925c-3.984,1.24-6.734,4.947-6.734,9.148c0,0.235,0.011,0.477,0.033,0.731h-15.654v5.716h18.121
		C376.61,34.701,377.104,35.143,377.639,35.529z M383.255,23.889c2.138,0,3.877,1.738,3.877,3.874c0,2.136-1.739,3.874-3.877,3.874
		s-3.877-1.738-3.877-3.874C379.378,25.627,381.117,23.889,383.255,23.889z"/>
	<path fill="#231815" d="M195.512,35.472c-7.667,0-13.904,6.237-13.904,13.903c0,7.67,6.237,13.909,13.904,13.909
		s13.904-6.239,13.904-13.909C209.416,41.709,203.179,35.472,195.512,35.472z M190.139,42.001l5.328,5.328l5.361-5.363
		c0.764,0.548,1.43,1.199,1.985,1.94l-5.385,5.385l5.457,5.457c-0.552,0.758-1.205,1.418-1.951,1.97l-5.468-5.464l-5.429,5.426
		c-0.335-0.253-0.653-0.528-0.949-0.821l-0.094-0.096c-0.331-0.338-0.637-0.703-0.897-1.064l5.406-5.407l-5.333-5.338
		C188.725,43.204,189.385,42.549,190.139,42.001z"/>
	<polygon fill="#231815" points="51.847,2.916 46.161,2.916 46.161,19.977 51.847,19.977 51.847,15.293 72.473,15.293 
		61.211,27.755 57.998,24.198 50.333,24.198 57.38,31.99 42.936,47.968 50.597,47.968 61.211,36.228 71.824,47.968 79.487,47.968 
		65.041,31.99 80.133,15.293 83.391,15.293 83.391,9.61 51.847,9.61 	"/>
	<polygon fill="#231815" points="115.011,6.455 83.527,38.519 91.538,38.519 98.319,31.616 98.319,82.235 104.036,82.235 
		104.036,25.792 123.025,6.455 	"/>
</g>
</svg>
