<?xml version="1.0" encoding="iso-8859-1"?>
<!-- Generator: Adobe Illustrator 30.2.1, SVG Export Plug-In . SVG Version: 9.03 Build 0)  -->
<svg version="1.1" id="&#x30EC;&#x30A4;&#x30E4;&#x30FC;_1"
	 xmlns="http://www.w3.org/2000/svg" xmlns:xlink="http://www.w3.org/1999/xlink" x="0px" y="0px" viewBox="0 0 386.982 162.352"
	 enable-background="new 0 0 386.982 162.352" xml:space="preserve">
<g>
	<path fill-rule="evenodd" clip-rule="evenodd" fill="#231815" d="M272.784,0c3.022,0.302,6.047,0.608,9.063,0.907V0h0.907
		c0.305,0.608,0.61,1.207,0.907,1.817h5.436c0.3,0.602,0.605,1.204,0.902,1.809c0.916,0.297,1.818,0.602,2.725,0.907v1.809
		c-2.493,1.436-1.627,2.243-5.436,2.719v8.153h0.902v-0.902c1.469-0.578,1.7,0.886,1.809,0.902h10.881h1.818v-0.902
		c0.907,0.305,1.809,0.605,2.717,0.902c2.529,0.294,3.292-0.807,4.534-0.902c1.967-0.15,1.809,0.902,1.809,0.902h9.068
		c1.049-2.801,0.94-7.641,0.902-11.78h-0.902c0.605-1.809,1.207-3.619,1.809-5.436h6.346v0.907c1.504-0.3,3.022-0.605,4.526-0.907
		v0.907h1.818v0.91h2.717v0.902h3.627c0,0,1.06,1.414,1.809,1.815c-0.766,1.027,0.109,0.128-0.907,0.902
		c-0.602,1.213-1.207,2.42-1.809,3.627h-2.719c-0.302,2.42-0.602,4.834-0.907,7.251c1.03,0.766,0.134-0.114,0.907,0.902h1.817
		v-0.902c1.267-0.104-0.373,0.747,0.902,0.902c4.21,0.548,14.72,0,21.753,0c0.567-1.322,6.594-10.548,7.246-10.872h2.722
		c1.561,1.82,2.09,0.763,3.627,1.817c0.902,1.207,1.817,2.412,2.719,3.621h1.809c0.303,0.605,0.61,1.207,0.907,1.815h1.809V14.5
		h0.91c1.768,2.068-0.97,1.635,2.717,2.714c-0.297,0.916-0.602,1.817-0.902,2.725c-13.657-0.054-37.168-1.346-48.945,0.907v11.783
		c0.33,0.136,3.567,0.869,3.627,0.907c0.305,0.602,0.602,1.207,0.907,1.809h0.902v1.815c0.61,0.305,1.215,0.605,1.815,0.905v4.532
		h0.902v1.812h0.91v3.627c0.61,0.3,1.207,0.605,1.815,0.907c1.809,5.436,3.627,10.875,5.439,16.309
		c-1.812,1.518-3.63,3.025-5.439,4.534v0.907h-1.815c-0.305,0.605-0.602,1.207-0.91,1.809h-1.809
		c-1.204,1.512-2.412,3.027-3.619,4.534c-0.916,0.302-1.817,0.605-2.725,0.91c-1.507,1.815-3.022,3.624-4.529,5.436
		c-2.722,0.907-5.442,1.809-8.158,2.719v-0.91c2.174-1.954,0.736-2.997,1.809-4.529h0.907c1.035-1.033,0.005-0.357,1.817-0.902
		c0.548-2.747,1.333-5.15,2.717-7.259c0.605-0.297,1.207-0.602,1.809-0.899v-1.818c0.605-0.302,1.21-0.602,1.818-0.905
		c-0.608-7.553-1.213-15.104-1.818-22.66c-3.349-0.142-3.504-0.619-5.436-1.812v-0.905c-1.21,0.302-2.42,0.605-3.624,0.905v-0.905
		c-1.812-0.302-3.621-0.608-5.436-0.907v-0.907h-4.534c-0.3-0.602-0.605-1.207-0.902-1.809h-6.352
		c-0.3-0.608-0.602-1.213-0.902-1.815c-2.42-0.599-4.834-1.207-7.254-1.809c1.191-4.493,5.602-5.101,8.156-8.161
		c1.818-0.3,3.627-0.602,5.444-0.905v0.905c3.984,0.943,6,0.51,9.06,0c0.033-3.469-0.431-5.681-0.902-8.156
		c-7.107,0.163-20.636-0.014-32.636,0c-0.828,2.207-0.932,5.611-0.902,9.066c0.902,0.303,1.809,0.602,2.711,0.905v1.812
		c-2.905,1.992-2.308,5.245-6.338,6.344v2.719h-0.907c-1.035,1.027,0,0.365-1.809,0.905c-0.272,2.728-0.586,2.97-1.809,4.532h-0.916
		c-0.297,0.905-0.605,1.815-0.902,2.722c-0.605,0.302-1.204,0.605-1.809,0.905c-2.591,3.888-0.755,7.651-6.352,9.066
		c-0.534,5.006-2.003,2.902-3.619,5.436c0.273,0.948,1.657,1.834,0.902,3.627c-0.605,0.3-1.207,0.602-1.809,0.905v2.722
		c-0.605,0.297-1.21,0.602-1.818,0.899v1.817c-0.605,0.305-1.207,0.605-1.809,0.907v4.534h-0.907
		c-0.3,0.902-0.605,1.809-0.907,2.717h-0.902V70.695h-0.91v-7.251h-0.907c-0.281-1.501,0.864-1.616,0.907-1.809
		c0.447-2.177-0.926-2.365-0.907-3.627h0.907v-5.436c0,0-1.493-1.191-1.815-1.817c1.213-0.905,2.417-1.809,3.627-2.717v-1.815h0.907
		c0.302-0.605,0.608-1.204,0.907-1.812h1.809c0.305-0.905,0.608-1.812,0.907-2.72h0.91c1.616-2.327-0.984-1.73,2.717-2.717v-1.812
		h2.719c0.303-1.213,0.602-2.42,0.902-3.624h0.913v-12.69c-3.022-0.302-6.047-0.608-9.069-0.907v0.907h-0.902v-0.907h-2.722v0.907
		c-1.556,0.264-1.526-0.839-1.812-0.907h-8.153v0.907c-1.215-0.302-2.42-0.608-3.63-0.907c-8.243-0.602-14.23,0.025-20.848,0
		c-0.297-0.602-0.602-1.207-0.902-1.809c2.403-0.907,6.292-0.946,9.965-0.916v-0.902c1.488-0.61,1.676,0.88,1.815,0.902h4.529
		c1.262,0.24-0.371,0.967,0.907,0.916v-0.916h9.968c7.619,0,14.54-0.207,19.941,0c0.978-2.602,0.951-6.965,0.913-10.872
		C270.634,4.714,272.198,2.594,272.784,0"/>
	<path fill-rule="evenodd" clip-rule="evenodd" fill="#231815" d="M20.842,16.315c1.61,0.251,1.817,0.902,1.817,0.902h4.532
		c0.3,0.61,0.602,1.213,0.905,1.817c1.51,0.303,3.022,0.608,4.534,0.907c0.3,0.602,0.602,1.204,0.902,1.809h3.624v0.907h1.817
		c0.3,0.605,0.602,1.207,0.902,1.815h1.815v0.905h2.719c0.905,1.21,1.812,2.42,2.717,3.63h1.815
		c0.302,0.602,0.608,1.204,0.905,1.809h1.817c0.907,1.21,1.809,2.417,2.717,3.624h0.907v1.815c0.605,0.305,1.207,0.605,1.812,0.905
		v3.627c1.918,2.008,0.48,5.886,0,8.158c-1.812,0.976-4.335,2.79-5.436,4.532c-1.812-0.589-1.817-1.218-3.627,0v-0.905
		c-6.412-3.763-7.831-11.036-11.788-17.224c-0.597-0.305-1.207-0.602-1.809-0.907v-1.812c-0.907-0.602-1.809-1.213-2.717-1.812
		v-1.809c-0.605-0.308-1.207-0.608-1.815-0.913v-1.807c-0.605-0.305-1.21-0.608-1.812-0.91c-1.207-1.512-2.417-3.019-3.627-4.529
		h-1.809C21.58,19.955,21.226,17.942,20.842,16.315"/>
	<path fill-rule="evenodd" clip-rule="evenodd" fill="#231815" d="M293.633,76.133v2.722h1.809v0.91
		c1.275,0.883,2.616,1.572,3.627,2.714h0.907v1.815c0.902,0.297,1.809,0.599,2.719,0.902v0.907h-2.719
		c-1.521-2.224-3.204-2.082-5.436-3.624c-0.61-0.907-1.21-1.815-1.815-2.714H290v-0.91c-0.902-0.302-1.809-0.608-2.711-0.905
		c-0.305-0.608-0.61-1.215-0.907-1.817h-2.719c-0.3-0.599-0.605-1.207-0.907-1.809c-1.861-0.989-4.134-0.155-5.436-1.817v-1.809
		c-0.605-0.302-1.207-0.602-1.809-0.907v-9.063c1.03-1.033,0.357-0.003,0.902-1.809c2.545-1.501,3.085-3.654,6.344-4.534
		c0.488-2.591,1.45-3.7,2.717-5.439h0.91v-2.72c1.504-1.207,3.014-2.417,4.534-3.627v-0.905h3.624
		c5.436,1.812,10.872,3.63,16.309,5.436c-0.297,0.61-0.602,1.21-0.902,1.815c-1.815,0.605-3.627,1.207-5.442,1.812
		c-0.297,0.602-0.602,1.213-0.902,1.817h-1.818v0.905h-2.717c-0.902,1.204-1.817,2.414-2.717,3.621h-2.719
		c-0.61,0.907-1.213,1.817-1.815,2.722h-1.818c-0.561,0.379-0.714,1.199-1.809,1.812C289.312,66.688,285.979,74.25,293.633,76.133"
		/>
	<path fill-rule="evenodd" clip-rule="evenodd" fill="#231815" d="M378.829,52.572c-0.3,0.905-0.605,1.809-0.902,2.717h0.902v0.907
		c-0.605,0.305-1.207,0.605-1.818,0.905c-1.218,2.638,0.085,6.131-1.809,8.153c-1.03,1.035,0,0.365-1.818,0.91
		c-1.281,4.91-3.109,3.283-6.335,5.442c-0.605,0.899-1.215,1.809-1.818,2.717h-1.809c-0.572,0.384-0.684,1.207-1.818,1.809
		c0.305-2.717,0.608-5.436,0.91-8.153c-0.605-0.302-1.21-0.602-1.812-0.907c-0.305-2.117-0.602-4.226-0.907-6.346
		c-0.605-0.3-1.207-0.602-1.815-0.905v-3.624h-0.902c-0.308-0.907-0.605-1.815-0.91-2.719c2.809-1.491,1.627-1.722,6.346-1.812
		C365.047,49.302,375.336,52.144,378.829,52.572"/>
	<path fill-rule="evenodd" clip-rule="evenodd" fill="#231815" d="M319.914,69.788c-0.651,2.504-0.251,2.03-2.711,2.717
		c-1.886,2.106-1.624,1.319-3.627,0.91c-0.605,0.907-1.213,1.815-1.818,2.717c-2.387,1.202-3.662,0.183-6.344,0
		c-1.507-2.444-3.619-2.324-4.534-5.436c4.831-0.303,9.671-0.602,14.505-0.907v-0.907c1.213-0.3,2.42-0.605,3.627-0.905V67.07
		c0.902,0.608,1.815,1.207,2.717,1.812v-0.905h0.907V67.07v-0.905h-0.907c0.305-0.91,0.605-1.812,0.907-2.722h-0.907
		c-1.035-4.205-4.327-5.082-5.436-9.06c2.016-0.763,4.927-0.935,8.156-0.905c0.523-0.379,0.134-1.482,1.809-0.905v0.905h0.907
		c1.147,1.921-0.962,4.621-0.907,5.439h0.907v4.526c0.605,0.305,1.207,0.608,1.818,0.91c0.572,1.144-0.504,0.51-0.91,0.902
		C326.696,67.63,323.314,69.434,319.914,69.788"/>
	<path fill-rule="evenodd" clip-rule="evenodd" fill="#231815" d="M309.041,64.352c-3.022-0.302-6.041-0.605-9.063-0.907
		c0.749-3.373,2.223-4.425,6.344-4.529C307.4,60.921,308.43,61.622,309.041,64.352"/>
	<path fill-rule="evenodd" clip-rule="evenodd" fill="#231815" d="M41.691,118.726h-1.817v0.91c-1.15,0.997-1.82,2.365-2.717,3.621
		H36.25v1.817h-1.81v1.812c-0.91,0.3-1.812,0.599-2.719,0.905c-1.207,1.507-2.417,3.019-3.627,4.532h-1.812
		c-0.3,0.907-0.602,1.809-0.905,2.722c-1.512,1.204-3.019,2.411-4.534,3.619c-0.3,0.61-0.605,1.213-0.902,1.815h-1.817
		c-1.512,1.817-3.017,3.627-4.534,5.439c-1.204,0.302-2.412,0.605-3.619,0.907c-0.608,0.905-1.21,1.809-1.815,2.714H5.439
		c-1.308,0.774-2.54,4.684-4.532,4.537v-0.91H0c0.305-0.905,0.602-1.809,0.907-2.714c3.785-2.256,6.166-5.889,9.063-9.071
		c1.207-0.902,2.414-1.809,3.619-2.717v-1.809c1.518-1.207,3.022-2.417,4.534-3.624v-1.812c1.512-1.21,3.022-2.42,4.534-3.627
		v-3.627c1.207-0.602,2.414-1.207,3.624-1.809v-3.63h0.907c0.526-0.736,1.7-1.649,1.815-1.807v-1.817
		c0.905-0.602,1.809-1.207,2.717-1.812v-2.722c0.602-0.3,1.207-0.599,1.809-0.907v-1.809h0.91v-2.719
		c0.602-0.305,1.213-0.602,1.809-0.907v-2.717c0.907-0.605,1.815-1.207,2.722-1.815v-3.621h0.902c0.305-1.21,0.608-2.417,0.91-3.624
		h0.907V89.73c0.605-0.302,1.207-0.602,1.812-0.907c0.3-2.411,0.605-4.834,0.907-7.248h0.905v-1.807h0.907
		c0.302-2.425,0.602-4.839,0.905-7.259c-17.074-0.019-28.887-0.019-46.22,0C0.602,71.605,0.305,70.697,0,69.79
		c2.401-0.905,6.292-0.946,9.97-0.907c1.657-1.161,6.788,0.943,10.872,0v-0.905c1.55-0.281,1.542,0.842,1.815,0.905h9.97
		c1.256-0.256-0.371-1.038,0.902-0.905v0.905h8.161v-0.905c0.256-0.027,4.376,1.73,6.346,0.905c0.3-0.605,0.602-1.207,0.905-1.812
		h1.812c0.3-0.907,0.602-1.817,0.907-2.719h0.91V62.54c0.845-0.984,1.85-0.717,3.619-0.905c0.907,1.21,1.815,2.417,2.722,3.619
		h1.812c0.905,1.213,1.809,2.422,2.717,3.63h1.815v0.907c0.905,0.605,1.812,1.21,2.719,1.815c1.253,1.589-0.665,0.529,0.905,1.809
		v0.91h-0.905c-1.589,5.812-5.188,2.033-7.251,5.442c-0.3,2.109-0.605,4.224-0.907,6.338h-0.905v1.812
		c-0.608,0.302-1.213,0.608-1.815,0.905v2.722H56.19v2.717c-0.602,0.3-1.207,0.602-1.809,0.905c-0.305,1.512-0.61,3.019-0.907,4.529
		c-0.902,0.608-1.812,1.21-2.72,1.815v1.809c-0.605,0.305-1.207,0.608-1.812,0.907v1.817c-0.605,0.297-1.21,0.602-1.815,0.902v2.717
		c-0.602,0.308-1.207,0.608-1.812,0.907c-0.3,1.21-0.605,2.425-0.905,3.624h-0.907C42.252,115.835,42.094,115.985,41.691,118.726"/>
	<path fill-rule="evenodd" clip-rule="evenodd" fill="#231815" d="M377.008,122.355v-0.91h-1.809
		c-0.605-1.207-1.208-2.417-1.818-3.624h-1.809v-0.902c-1.987-1.256-1.229,0.368-2.717-1.817c-3.872,1-9.093,7.599-10.878,10.872
		c-4.998-0.133-10.271,0.289-17.219,0c-1.817-0.3-3.627-0.597-5.436-0.902v0.902h-6.344c-1.256-0.267,0.365-1.065-0.91-0.902v0.902
		h-14.496c-0.547-2.986-1.556-7.564-0.907-11.782c0.193-1.264,0.991,0.373,0.907-0.902l-0.907-0.905h5.433v-0.907h1.812v-0.91
		c1.815,0.302,3.624,0.608,5.442,0.91v-0.91c3.199-0.839,7.044,0.883,9.063-0.907c3.218-0.815,4.268-2.749,5.442-5.436v-2.719
		c0.602-0.299,1.207-0.602,1.809-0.907c0.3-1.207,0.605-2.415,0.902-3.619c0.611-0.302,1.216-0.61,1.815-0.91
		c0.302-1.209,0.605-2.414,0.902-3.621c0.605-0.303,1.216-0.608,1.815-0.905v-2.722c0.608-0.3,1.21-0.605,1.815-0.905
		c0.908-3.025,1.818-6.044,2.725-9.063c-1.812,0.545-0.79-0.125-1.817,0.91h-0.907v2.714c-3.893,0.815-11.738,5.42-12.684,9.066
		c-3.06,0.828-4.142,2.839-6.349,4.526v0.91h-2.719v0.907c-0.908,0.3-1.81,0.603-2.717,0.905c-0.305,0.602-0.605,1.212-0.91,1.809
		c-1.204,0.305-2.414,0.607-3.624,0.907c-0.3,0.605-0.605,1.212-0.902,1.809h-6.344c-0.308,0.61-0.605,1.215-0.91,1.817h-1.809
		v0.907c-1.815,0.3-3.627,0.605-5.442,0.902v0.907c-4.475,1.594-6.047-0.861-8.156,1.812c-4.722-1.267-5.316-5.9-9.063-8.156v-2.717
		h-1.817c-0.728-2.847-5.818-9.542-8.153-10.872v-2.722h-1.809c-0.744-5.265-3.336-3.676-4.54-8.156
		c-7.333,1.943-4.671,9.494-9.058,12.69v3.624h0.902c0.611,0.908,1.213,1.81,1.818,2.717h1.809c0.302,0.608,0.605,1.207,0.907,1.815
		c1.207,0.3,2.414,0.603,3.621,0.905c3.594,2.319,5.815,6.289,10.878,7.251v1.809c0.907,0.305,1.815,0.608,2.722,0.91v0.902h2.719
		c0.3,0.605,0.597,1.21,0.902,1.818c0.907,0.299,1.809,0.602,2.725,0.907v0.905c1.744,1.368,2.226,1.646,5.436,1.812v6.344h-0.907
		v0.91h0.907c-0.215,2.131-0.384,2.238-0.907,3.619c-4.474-0.049-21.05-0.534-21.753,0c-9.144,0.049-28.535,1.61-35.347-0.902
		v-3.627c3.932-0.602,7.855-1.207,11.782-1.809v-0.91h1.809v-0.905h2.725v-0.902h1.809v-0.907h3.627v-0.91
		c3.746-1.177,5.588,0.654,8.158-1.812h0.902v-0.905c-1.205-0.907-2.415-1.818-3.619-2.725c-2.352-2.474-3.183-5.52-6.349-7.248
		V100.6h-2.72c-0.28-0.687-0.629-3.096-0.907-3.619c-0.605-0.302-1.21-0.61-1.809-0.91v-2.717h-0.902
		c-0.78-1.022,0.119-0.145-0.916-0.905c-0.299,0.905-0.605,1.812-0.907,2.714h-0.902v1.817c-0.605,0.297-1.209,0.6-1.809,0.905
		c-1.885,2.044-3.817,5.06-4.534,8.156h-3.63c-0.297-2.725-0.602-5.442-0.902-8.156h-1.809v-6.341
		c-0.608-0.303-1.213-0.608-1.818-0.913v-2.714h-0.907c-0.297-1.207-0.602-2.414-0.907-3.624c-0.602-0.305-1.207-0.607-1.809-0.907
		v-1.815c-0.602-0.299-1.207-0.604-1.817-0.907c-1.504-1.809-3.017-3.624-4.529-5.433v-0.907h-2.717
		c-1.06-3.701-0.379-1.041-2.717-2.717c-0.305-0.605-0.605-1.213-0.91-1.818h-1.815v-0.905h-1.809v-0.905h-2.719
		c-0.302-0.605-0.605-1.207-0.907-1.815h-2.72v-0.91h-4.526v-0.902c-2.724-0.605-5.436-1.207-8.158-1.812v0.902H184.88
		c-0.305,0.605-0.608,1.207-0.905,1.809c-1.055,0.335-4.646-1.164-7.246,0c-0.302,0.611-0.605,1.213-0.907,1.818h-4.529
		c-0.599,0.908-1.204,1.812-1.809,2.717h-2.717c-0.305,0.605-0.602,1.213-0.91,1.818h-1.815c-0.297,0.602-0.602,1.207-0.902,1.809
		h-1.817c-0.599,0.908-1.204,1.815-1.809,2.717h-1.815c-0.905,1.21-1.809,2.419-2.714,3.632h-0.913v1.807
		c-0.605,0.302-1.204,0.607-1.809,0.907v1.815c-0.605,0.3-1.207,0.599-1.809,0.902c-0.305,1.213-0.605,2.42-0.91,3.627h-0.907
		c-0.297,0.907-0.597,1.809-0.902,2.722c-0.908,0.602-1.815,1.201-2.717,1.809v2.717c-2.981,7.003-4.755,12.99-4.534,23.568
		c-1.207,0.3-2.42,0.602-3.627,0.902c-0.602-0.902-1.21-1.812-1.812-2.717h-1.812c-2.344-1.66-1.507-3.437-5.439-4.532v-2.722
		c-1.513-1.207-3.022-2.414-4.532-3.627v-0.902c-0.907-0.302-1.812-0.602-2.722-0.907v-2.719c-0.166-0.292-1.308-0.875-1.812-1.815
		h-2.717c0.299-0.905,0.602-1.809,0.907-2.714c-1.21-0.905-2.417-1.815-3.624-2.722v-2.714c-1.213-0.904-2.42-1.817-3.627-2.719
		v-2.717c-0.907-0.604-1.815-1.207-2.722-1.817c-0.303-1.51-0.6-3.017-0.902-4.532c-0.607-0.3-1.209-0.599-1.817-0.899
		c-0.303-1.212-0.603-2.422-0.905-3.632h-0.905c-1.444-1.897-1.779-2.75-1.812-6.344c3.621-1.207,7.248-2.414,10.875-3.624
		c0.297-0.599,0.602-1.21,0.907-1.812c1.51-0.302,3.017-0.604,4.532-0.907v-0.905c0.905-0.303,1.81-0.608,2.717-0.905
		c0.303-0.605,0.605-1.21,0.905-1.815h2.722v-0.905h1.815c0.303-0.607,0.6-1.212,0.902-1.817h1.815v-0.905h2.719
		c0.603-0.905,1.208-1.812,1.818-2.717c0.902-0.303,1.809-0.608,2.714-0.905v-0.91c2.717-0.908,5.439-1.812,8.156-2.717v-0.907
		c1.719-0.515,1.275,0.591,1.817,0.907c0.902-0.302,1.81-0.607,2.717-0.907v-0.91h1.809v-0.905h0.91
		c-0.535-2.008-0.75-2.297-1.818-3.624h-0.902c-0.302-0.908-0.61-1.812-0.907-2.717c-0.907-0.305-1.809-0.61-2.719-0.907v-0.907
		h-2.717v-1.809c-2.73-0.689-4.256-2.376-5.439-4.537c-7.226,0.221-4.474,1.311-7.248,5.442c-0.604,0.303-1.215,0.605-1.817,0.905
		v1.815c-1.507,1.207-3.02,2.414-4.532,3.624v1.812c-1.815,1.507-3.627,3.02-5.436,4.532v1.813c-0.907,0.605-1.82,1.207-2.722,1.815
		c-0.3,0.599-0.602,1.207-0.902,1.812h-1.815c-0.3,0.905-0.605,1.81-0.91,2.717c-0.902,0.302-1.81,0.605-2.717,0.91
		c-1.507,1.809-3.02,3.624-4.532,5.436v0.902c-2.115,0.311-4.229,0.61-6.344,0.91c-0.902-3.409-2.578-4.488-2.717-9.066
		c-1.81-0.543-0.782,0.128-1.815-0.905h-0.91v-3.621h-0.899v-2.722h-0.91v-2.722h-0.907v-2.717h-0.907V23.566h0.907
		c0.259-1.799-0.907-1.815-0.907-1.815c-0.597-2.815,0.517-4.338,0.907-6.341c2.731-0.607,3.431-1.643,5.442-2.719v-2.72h-0.907
		c-2.534-2.559-17.387-3.706-21.75-3.627c-0.044,8.959-0.014,18.082,0,29.005v8.158c0.049,0.234,1.24,0.275,0.902,1.812h-0.902
		v1.809h-0.907c-0.071,0.313,0.902,6.025,0.907,8.161v6.346h-0.907v0.905h0.907v5.439h-0.907v0.905h0.907v5.439h0.902
		c0.183,1.515-1.774,1.621-1.809,1.809v0.907h0.907v5.439c-0.229,1.259-0.994-0.374-0.907,0.907h0.907V95.16
		c0,9.886,0.12,21.475-0.907,29.911c-0.158,1.275,0.686-0.354,0.907,0.902c0.243,1.442-0.907,1.818-0.907,1.818
		c0.297,0.904,0.602,1.809,0.907,2.719c0.649,10.273-0.398,23.265,0,30.816c4.297-0.916,11.248-4.439,13.589-7.251
		c2.381-2.332,4.111-11.45,2.719-17.221c-0.065-0.278-1.226-0.248-0.902-1.812h0.903v-3.627h0.907
		c0.281-1.515-0.855-1.586-0.907-1.815v-5.436v-9.063h0.907v-0.91c-0.002-1.272-1.305-1.436-0.907-3.624h0.907v-0.907h-0.907v-4.529
		h-0.902c-0.261-1.523,0.848-1.572,0.902-1.817v-4.526V72.504h0.907v-0.899h-0.907c0.305-1.512,0.607-3.024,0.907-4.534h-0.907
		c-0.809-3.385-0.392-7.627,0-8.156c1.036-1.528,0.553-1.261,2.725-1.817v4.537c0.602,0.297,1.204,0.603,1.809,0.905v2.714h0.907
		v5.442c0.605,0.305,1.207,0.605,1.809,0.91v2.717c0.605,0.305,1.207,0.602,1.815,0.907v5.433c0.602,0.302,1.204,0.607,1.812,0.907
		v2.724h0.9v1.812h0.91v2.717h0.905c0.605,1.809,1.213,3.627,1.812,5.439h0.905c0.302,1.207,0.608,2.417,0.91,3.624
		c0.602,0.3,1.21,0.603,1.809,0.905v3.624c0.602,0.305,1.207,0.605,1.815,0.902v1.817h0.907v2.717h0.902
		c0.305,0.91,0.61,1.812,0.91,2.719c0.602,0.302,1.207,0.608,1.815,0.91v2.714h0.902c0.305,1.213,0.608,2.423,0.902,3.63
		c1.213,0.602,2.423,1.207,3.63,1.815v1.809c0.608,0.3,1.21,0.605,1.812,0.91c0.302,1.208,0.608,2.412,0.91,3.619
		c1.207,0.91,2.417,1.817,3.627,2.722v1.815c0.902,0.602,1.81,1.207,2.717,1.809v1.812c1.809,1.213,3.627,2.42,5.439,3.63
		c0.915,1.022,0.04,2.346,0.907,3.619c0.905,0.306,1.812,0.611,2.717,0.916c0.904,1.205,1.814,2.412,2.719,3.619h1.815v0.91h1.809
		c0.476,0.299,0.768,1.231,1.817,1.809c1.158-2.425,2.374-3,2.717-6.338h3.627c0.297,0.902,0.605,1.809,0.902,2.711
		c1.205,0.907,2.414,1.817,3.627,2.722v1.809h0.905c0.303,0.91,0.603,1.815,0.905,2.722c4.597,0.15,6.401,0.071,7.251-3.627
		c4.09-1.153,2.041-1.442,3.627-4.529h0.907v-2.725c0.605-0.297,1.21-0.602,1.809-0.902v-1.815h0.91
		c0.297-1.207,0.602-2.414,0.905-3.621h0.905v-2.722c0.602-0.297,1.207-0.602,1.809-0.905v-3.624
		c0.604-0.305,1.209-0.605,1.817-0.907v-2.72h0.902c0.3-1.207,0.605-2.42,0.905-3.627h0.907v-2.717h0.905v-3.63h0.905v-1.807h0.902
		v-4.537c0.91-0.602,1.815-1.204,2.722-1.809l-0.907-0.907c0.305-1.818,0.605-3.627,0.907-5.439
		c0.602-0.303,1.207-0.603,1.809-0.905v-5.436h0.907v-2.722h0.907v-4.526h0.902v-2.719h0.905c1.107-3.596-2.117-8.866-3.621-9.97
		h-1.809v-0.91c-1.553-1.273-2.183-2.169-4.529-2.717V67.98c6.229-1.117,16.069-1.169,19.927,0c2.417,0.3,4.832,0.603,7.254,0.905
		v0.905c2.253,1.603,1.856,2.235,5.428,2.717v1.817c2.468,0.626,2.054,1.223,4.534,1.809c0.547,1.809-0.123,0.787,0.907,1.817
		c0.694,2.469,0.212,2.06,2.719,2.714c0.611,2.117,1.213,4.229,1.815,6.349l1.809,0.905v1.812h0.91v4.532
		c0.602,0.3,1.207,0.6,1.809,0.902c0.798,2.036-0.986,2.48-0.902,3.627h0.902v7.251h0.907c-0.302,4.528-0.602,9.063-0.907,13.597
		h-0.902c-0.572,2.144,0.823,2.365,0.902,3.621h-0.902c-0.305,0.908-0.605,1.815-0.907,2.717c-0.608,0.305-1.213,0.605-1.818,0.91
		v3.627c-0.602,0.3-1.204,0.603-1.809,0.905v2.717c-0.605,0.305-1.205,0.605-1.815,0.91v1.812h-0.902
		c-1.25,1.605-1.457,1.796-1.817,4.526c-4.327,1.212-3.845,4.297-8.153,5.444c-0.878,3.657-3.371,5.722-6.344,7.251v2.714
		c0.908-0.3,1.81-0.603,2.717-0.905v-0.905h1.818v-0.905h2.717c0.297-0.602,0.605-1.213,0.902-1.815h1.809v-0.907
		c1.213-0.308,2.42-0.603,3.627-0.905c0.908-1.212,1.815-2.425,2.725-3.624h2.717v-0.91h0.907V143.2h2.72v-0.902
		c0.908-0.61,1.81-1.212,2.717-1.817v-2.717c0.605-0.305,1.21-0.607,1.809-0.907v-1.812h0.91c1.311-1.657,2.246-2.9,2.717-5.442
		c2.42,0.305,4.834,0.608,7.254,0.91v-0.91h3.627c0.602,0.305,1.207,0.608,1.809,0.91v-0.91h7.254
		c3.319,0.305,6.648,0.608,9.97,0.91v-0.91c1.809,0.305,3.624,0.608,5.436,0.91v-0.91h14.502v0.91h0.902v-0.91h10.881v12.695
		c0.036,0.188,1.316,0.288,0.902,1.809c-0.054,0.212-1.73,0.237-1.809,1.809v0.91h0.907v15.404
		c5.336,0.049,12.42,0.545,16.317-0.902c-0.232-3.087-1.185-9.087,0-13.597h0.907v-0.905h-0.907
		c-0.483-2.861,0.114-6.643,0.907-8.161c-0.122-1.275-0.703,0.36-0.907-0.902v-4.532h0.907c-0.103-1.199-0.798-1.382-0.907-3.63
		h14.497v0.91h0.907v-0.91h6.346v0.91h0.907v-0.91c0.908,0.305,1.81,0.608,2.717,0.91v-0.91h6.344
		c0.902,0.305,1.812,0.608,2.717,0.91v-0.91h2.722v0.91h0.91v-0.91h3.619c1.262,0.226-0.365,1.052,0.913,0.91v-0.91h9.058
		c6.491,0,13.889-0.044,19.031-0.905C382.341,124.884,380.014,124.189,377.008,122.355z M181.257,81.327h-0.905v0.709h0.905
		c-0.905,3.311-1.809,6.621-2.714,9.924h-0.905v3.542c-0.605,0.24-1.213,0.477-1.815,0.714v3.54h-0.905
		c-0.303,0.949-0.602,1.897-0.905,2.837c0.003,0.016,1.434,0.316,0.905,1.422c-0.602,0.234-1.204,0.469-1.809,0.703v1.42h-0.905
		c-0.605,2.359-1.207,4.722-1.812,7.087h-0.907v2.128h-0.907v1.417c-1.774,2.605-2.602,1.107-2.719,5.671
		c-1.815,0.428-0.78-0.095-1.815,0.714h-0.902v2.123h-1.818v0.711c-1.515,0.207-1.583-0.67-1.809-0.711h-4.529
		c-0.308-0.709-0.608-1.417-0.913-2.123c-0.605-0.24-1.207-0.477-1.809-0.714v-2.123c-0.605-0.237-1.21-0.477-1.809-0.711
		c-0.308-1.888-0.605-3.785-0.91-5.673h-0.907v-1.414h-0.902v-9.216c0.602-0.237,1.207-0.474,1.809-0.711
		c-0.299-1.654-0.602-3.305-0.907-4.962h0.907v-2.834c0.603-0.237,1.208-0.477,1.818-0.711c-0.341-1.545-1.243-1.357,0-3.54h0.902
		v-2.834c0.602-0.243,1.204-0.474,1.809-0.714c0.305-0.943,0.605-1.888,0.913-2.834l2.714-1.417v-2.128
		c1.515-0.943,3.022-1.891,4.534-2.837v-1.417c0.602-0.237,1.204-0.471,1.809-0.708v-0.709c1.205-0.238,2.42-0.472,3.627-0.709
		c0.302-0.711,0.602-1.416,0.907-2.125c0.94-0.855,2.409,0,3.627-0.708v-0.711h6.338v0.711
		C180.26,72.752,182.29,77.842,181.257,81.327z"/>
	<path fill-rule="evenodd" clip-rule="evenodd" fill="#231815" d="M324.448,87.916h-1.812c0.768-1.027-0.114-0.131,0.902-0.905
		v-0.907C324.576,87.139,323.901,86.109,324.448,87.916"/>
	<path fill-rule="evenodd" clip-rule="evenodd" fill="#231815" d="M354.353,93.352h0.913v3.627c0.599,0.297,1.207,0.599,1.812,0.905
		v5.434c0.602,0.305,1.21,0.608,1.815,0.907c0.798,1.946,0.117,4.613,0.902,6.344h-0.902c-0.302,0.91-0.605,1.817-0.913,2.722
		c-3.164-1.221-4.006-0.632-7.246,0c-1.97-2.878-4.311-1.58-5.444-5.439C349.039,105.388,352.383,97.788,354.353,93.352"/>
	<path fill-rule="evenodd" clip-rule="evenodd" fill="#231815" d="M201.186,155.888c1.03,1.03,0.36,0,0.902,1.817h-0.902V155.888z"
		/>
</g>
</svg>
