<?xml version="1.0" encoding="UTF-8"?>
<svg id="_レイヤー_1" data-name="レイヤー_1" xmlns="http://www.w3.org/2000/svg" version="1.1" viewBox="0 0 392.78 56.87">
  <!-- Generator: Adobe Illustrator 30.2.1, SVG Export Plug-In . SVG Version: 2.1.1 Build 1)  -->
  <path d="M15.51,6.64c-.92-1.91-1.58-3.29-3.29-5.32,3.22-.59,6.05-1.05,7.82-1.05s2.24.46,2.24,1.38c0,.59-.07,1.25.07,1.84.2.79.46,1.71,1.05,3.29.79,1.97,1.38,3.55,2.24,5.32,5.98-1.38,10.32-2.76,13.74-4.08.66-.33.85-.26,1.25.46.66,1.25,1.25,3.55,1.64,5.06.2.66-.07.99-.53,1.12-3.16,1.18-6.97,2.37-13.08,3.81,2.7,4.87,5.98,9.34,10.06,13.87.53.52,1.12.99,1.71,1.45.39.33.66.53.66.85,0,.46-.2.79-.39,1.12-.46,1.12-1.77,3.22-2.56,4.27-.53.72-.85.99-1.32.99-.33,0-.53-.13-1.05-.52-.85-.59-1.45-1.05-2.7-1.71-4.27-2.23-9.07-3.35-13.94-3.35-6.84,0-10.98,2.04-10.98,6.18,0,4.93,5.98,6.97,16.3,6.97,3.22,0,7.1-.33,10.52-.92-.26,2.63-.92,5.59-1.38,7.03-.2.66-.46.79-1.25.92-1.18.2-4.54.46-7.3.46-15.52,0-23.86-4.93-23.86-13.61,0-7.49,6.44-12.75,17.29-12.75,5.32,0,9.01.79,11.7,1.77-3.22-3.02-5.85-6.64-8.48-11.64-4.14.72-7.95,1.25-12.69,1.65-1.77.13-4.8.33-6.44.33-.59,0-.85-.39-1.05-1.18-.66-2.04-.99-3.42-1.51-5.92,3.35.13,6.05.06,8.22-.07,2.76-.13,6.05-.53,10.39-1.25-1.12-2.37-2.04-4.27-3.09-6.77Z"/>
  <path d="M78.36,8.41c.33-1.97.66-4.54.66-7.3,3.42.72,5.26,1.18,7.89,2.17.66.2,1.05.72,1.05,1.32,0,.33-.13.66-.46.99-.66.86-.99,1.58-1.31,2.5-.85,2.7-1.51,5.13-2.37,7.89,1.77-.2,3.75-.26,5.13-.26,6.18,0,9.53,4.21,9.53,12.16s-1.31,16.37-3.55,21.1c-1.91,4.21-5.06,6.18-8.88,6.18-3.16,0-5.06-.26-6.51-.72-.79-.26-1.18-.85-1.18-1.84-.2-2.1-.33-3.94-1.25-6.11,2.96,1.12,5.19,1.45,7.23,1.45,2.17,0,3.16-.79,4.21-3.48,1.38-3.68,2.56-9.93,2.56-16.3,0-4.67-.85-6.12-3.75-6.12-1.58,0-3.62.2-5.52.46-4.34,12.62-8.09,21.69-13.21,30.9-.39.85-.92.99-1.71.59-1.18-.59-3.75-2.17-4.54-2.89-.33-.33-.53-.59-.53-.99,0-.2.07-.46.26-.72,5.26-9.14,8.68-16.11,12.03-25.77-2.56.39-4.67.79-6.44,1.12-1.71.33-2.76.72-3.62,1.05-.92.33-1.71.2-2.1-.85-.59-1.51-1.31-3.88-2.04-6.77,2.89,0,5.79-.2,8.68-.46,2.76-.26,5.19-.59,7.76-.99,1.05-3.75,1.51-6.05,1.97-8.28ZM105.12,12.82c.46-.26.79-.13,1.25.33,4.47,4.21,8.48,9.66,10.91,15.98.26.59.2.92-.26,1.31-1.12,1.05-3.62,2.63-4.93,3.29-.66.33-1.32.26-1.51-.53-2.63-6.9-6.05-12.56-10.78-17.03,1.64-1.12,3.55-2.43,5.33-3.35Z"/>
  <path d="M146.87,41.68c0,6.05,2.63,8.41,8.74,8.41,7.69,0,11.97-2.96,11.97-8.87,0-3.68-.92-6.7-5.92-11.96,2.63.33,4.08,0,6.71-.39.46-.13.99-.07,1.38.26,3.61,3.42,5.59,7.89,5.59,12.36,0,9.34-7.63,15.38-18.93,15.38s-16.57-5.26-16.57-14.86c0-1.38.2-3.22.46-6.18-3.94-.59-6.57-1.18-8.94-1.97-.46-.13-.66-.46-.72-1.25-.2-2.04-.26-4.08-.13-6.11,3.94,1.45,6.9,2.17,10.65,2.56.33-2.43.85-6.7,1.12-9.4-4.6-.59-6.97-.99-9.47-1.84-.79-.2-1.05-.52-1.05-1.12-.07-1.58-.2-3.75-.2-6.11,4.47,1.45,7.63,2.04,11.9,2.5.53-3.81.72-5.59.85-7.56.13-1.84.13-3.75-.07-5.52,3.02.39,6.44,1.25,7.89,1.84.92.33,1.45.92,1.45,1.51,0,.46-.2.85-.53,1.25-.46.46-.79,1.32-1.18,2.83-.33,1.51-.72,3.75-1.05,6.18,2.63.2,5.33,0,8.09-.39.46,0,.66.33.66.79.07,1.58.07,3.42-.13,4.93,0,.72-.26.92-1.05.99-2.89.33-5.85.39-8.74.33-.39,2.3-1.05,6.77-1.45,9.4,3.48.06,6.18,0,9.33-.2.85-.13,1.05.13,1.05.72,0,1.18-.13,3.55-.33,4.93-.07.79-.26,1.05-.92,1.05-3.29.26-6.7.26-10.06.2-.33,2.56-.39,4.14-.39,5.32Z"/>
  <path d="M214.78,2.1c.79.2,1.18.53,1.18,1.05,0,.92-.46,1.84-.46,2.76,0,1.31.2,2.89.33,4.4.59,4.6,1.25,7.89,2.1,11.31,3.29-1.78,5.65-3.03,9.34-5,1.91-1.12,3.48-2.24,4.54-3.55,2.1,2.17,3.81,4.47,4.8,6.18.26.39.46.92.46,1.38,0,.66-.39,1.18-1.32,1.32-1.97.33-4.21,1.12-6.31,1.97-5.65,2.3-10.91,4.73-15.45,7.69-5.72,3.75-7.76,6.84-7.76,9.93,0,3.88,2.89,5.52,10.45,5.52,8.28,0,14.99-.59,20.05-1.51.72-.13,1.05,0,1.18.79.33,1.77.53,4.14.66,6.11.06.72-.39,1.05-1.18,1.12-5.98.79-11.24.99-19.59.99-12.43,0-19-4.08-19-12.62,0-7.3,4.8-12.1,12.49-16.96-1.58-5.06-2.76-10.98-3.42-16.04-.46-3.48-.92-5.79-1.71-7.63,3.16,0,6.18.2,8.61.79Z"/>
  <path d="M253.56,56.73v-3.45h18.96v3.45h-18.96Z"/>
  <g>
    <path d="M287.93,3.02h8.14v50.96h-8.14V3.02Z"/>
    <path d="M341.53,45.77c0,1,.13,1.71.39,2.14.26.43.77.64,1.54.64h.86c.33,0,.71-.05,1.14-.14v5.64c-.29.09-.65.2-1.11.32-.45.12-.92.23-1.39.32-.48.09-.95.17-1.43.21-.48.05-.88.07-1.21.07-1.67,0-3.05-.33-4.14-1-1.09-.67-1.81-1.83-2.14-3.5-1.62,1.57-3.6,2.71-5.96,3.43s-4.63,1.07-6.82,1.07c-1.67,0-3.26-.23-4.78-.68-1.52-.45-2.87-1.12-4.03-2-1.17-.88-2.09-2-2.78-3.35-.69-1.36-1.04-2.94-1.04-4.75,0-2.28.42-4.14,1.25-5.57.83-1.43,1.93-2.54,3.28-3.35s2.88-1.39,4.57-1.75c1.69-.36,3.39-.63,5.1-.82,1.47-.29,2.88-.49,4.21-.61,1.33-.12,2.51-.32,3.53-.61s1.83-.72,2.43-1.32.89-1.49.89-2.68c0-1.05-.25-1.9-.75-2.57-.5-.67-1.12-1.18-1.86-1.54s-1.56-.59-2.46-.71c-.91-.12-1.76-.18-2.57-.18-2.28,0-4.16.48-5.64,1.43-1.48.95-2.31,2.43-2.5,4.42h-8.14c.14-2.38.71-4.35,1.71-5.92,1-1.57,2.27-2.83,3.82-3.78,1.55-.95,3.29-1.62,5.25-2,1.95-.38,3.95-.57,5.99-.57,1.81,0,3.59.19,5.35.57,1.76.38,3.34,1,4.75,1.86,1.4.86,2.53,1.96,3.39,3.32.86,1.36,1.28,3.01,1.28,4.96v18.98ZM333.4,35.5c-1.24.81-2.76,1.3-4.57,1.46-1.81.17-3.62.42-5.43.75-.86.14-1.69.35-2.5.61-.81.26-1.52.62-2.14,1.07-.62.45-1.11,1.05-1.46,1.78-.36.74-.53,1.63-.53,2.68,0,.91.26,1.67.78,2.28.52.62,1.15,1.11,1.89,1.46.74.36,1.54.61,2.43.75.88.14,1.68.22,2.39.22.9,0,1.88-.12,2.93-.36,1.05-.24,2.03-.64,2.96-1.21.93-.57,1.7-1.3,2.32-2.18.62-.88.93-1.96.93-3.25v-6.07Z"/>
    <path d="M356.23,3.02h8.14v18.84h.14c.57-.9,1.26-1.71,2.07-2.43.81-.71,1.7-1.32,2.68-1.82.98-.5,2-.88,3.07-1.14,1.07-.26,2.13-.39,3.18-.39,2.9,0,5.44.51,7.6,1.53s3.96,2.43,5.39,4.21c1.43,1.79,2.5,3.87,3.21,6.25s1.07,4.92,1.07,7.64c0,2.48-.32,4.88-.96,7.21-.64,2.33-1.62,4.39-2.93,6.17-1.31,1.79-2.96,3.21-4.96,4.28s-4.35,1.61-7.07,1.61c-1.24,0-2.49-.08-3.75-.25-1.26-.17-2.46-.49-3.6-.96-1.14-.47-2.18-1.09-3.1-1.86-.93-.76-1.7-1.76-2.32-3h-.14v5.07h-7.71V3.02ZM384.64,35.57c0-1.67-.22-3.28-.64-4.85-.43-1.57-1.07-2.96-1.93-4.17-.86-1.21-1.93-2.19-3.21-2.93s-2.76-1.11-4.42-1.11c-3.43,0-6.01,1.19-7.74,3.57-1.74,2.38-2.61,5.54-2.61,9.49,0,1.86.23,3.58.68,5.17.45,1.59,1.13,2.96,2.03,4.1.9,1.14,1.99,2.05,3.25,2.71,1.26.67,2.72,1,4.39,1,1.86,0,3.43-.38,4.71-1.14,1.28-.76,2.34-1.75,3.18-2.96.83-1.21,1.43-2.59,1.78-4.14.36-1.55.54-3.13.54-4.75Z"/>
  </g>
</svg>